<svg xmlns="http://www.w3.org/2000/svg" viewBox="0 0 1054.56 1721.6"><defs><style>.cls-1{fill:#373b72;}.cls-2{fill:#f6be8e;}.cls-3{fill:#e27785;}.cls-4{fill:#842d54;}.cls-5{fill:#fff;}.cls-6{fill:#344066;}.cls-7{fill:#1d2b4f;}.cls-8{fill:#e6eded;}.cls-9{fill:#b6cedd;}.cls-10{fill:#ef5964;}.cls-11{fill:#d13346;}.cls-12{fill:#77829e;}.cls-13{fill:#f9cb64;}.cls-14{fill:#fc8449;}.cls-15{fill:#40ccbb;}.cls-16{fill:#4297cc;}.cls-17{fill:#b9b419;}.cls-18{fill:#f9684b;}</style></defs><g id="Capa_2" data-name="Capa 2"><g id="object"><path class="cls-1" d="M348.15,150.18s14.19-17.66,14-31-8.36-17-8.36-17,11.84-10.27,4-31.19S335,52.33,335,52.33a27.59,27.59,0,0,0-9.91-16.27c-8.43-6.39-16.44,0-16.44,0S307.46,21,288.55,15.73s-26,0-26,0S259.33,1.2,240.41,0,202.5,25.6,202.5,25.6s-14.23-4.06-20,9.88,0,23.25,0,23.25S163.05,69.19,161.9,90.11s6.88,28.47,6.88,28.47-14.9,15.11-14.9,28.47,17.87,30.06,17.87,30.06-14.43,7.13-4.11,24.56,25.12,15.14,25.12,15.14,5.82,16.65,24.73,11.21S348.15,150.18,348.15,150.18Z"/><path class="cls-2" d="M342.66,114.71s19.07,83.13-2.53,112.81-42.64,32-42.64,32,1.84,39.28,16.66,50.38S332.28,320.26,329,321s-32.91,14.61-57.86,9.33a181.48,181.48,0,0,1-43-14.88s6.58-37.5,6-55.93S210,211.61,210,211.61s-18.64-4.66-22.48-16-.55-19.55,6.58-24.59,13.16-7.27,16.45-5.6,2.19,17.23,8.22,18.34,8.22,6,8.77,2.45-6-67.49-6-67.49,55.49,0,76-3.07,42.64-13.58,42.64-13.58Z"/><path class="cls-3" d="M245.62,238s10,21.55,51.87,21.47c0,0-2.53,27.72-5.82,27.17S250,251.65,245.62,238Z"/><path class="cls-3" d="M201.12,177.19c-2.09.16-4.05.23-5.54,1.92-1.94,2.2-2.39,5.69-2.8,8.47-.23,1.57,2.15,2.25,2.38.66.49-3.34.78-7.53,4.67-8.45a13.52,13.52,0,0,1,5.28-.23.93.93,0,0,0-.13.15,14.35,14.35,0,0,0-.86,15c.75,1.42,2.88.16,2.13-1.26a11.82,11.82,0,0,1,.86-12.44,1.13,1.13,0,0,0,.22-.66,4.64,4.64,0,0,1,2.44,3.82c.15,1.59,2.61,1.61,2.46,0C211.64,177.78,206.48,176.79,201.12,177.19Z"/><ellipse class="cls-4" cx="264.82" cy="164.63" rx="5.79" ry="7.78"/><path class="cls-4" d="M326,161.42c0,3.75-2.15,6.79-4.82,6.79s-4.82-3-4.82-6.79,2.16-6.79,4.82-6.79S326,157.67,326,161.42Z"/><path class="cls-4" d="M249.45,150.18s8.71-9,14.05-11.05,12.13,0,12.13,0v6.25s-6.62-2.8-10.81-1.19S249.45,150.18,249.45,150.18Z"/><path class="cls-4" d="M316.4,137.25v5.84a32.37,32.37,0,0,1,8.17-1.67c3.29,0,7.4,2.77,7.4,2.77S329.62,135.79,316.4,137.25Z"/><path class="cls-3" d="M299,167.69c.28,5,2.92,8.57,6.16,12.11,1.86,2,5.55,5.08,4.39,8.1-1,2.52-3.82,5.33-5.39,7.51-1.88,2.6,2.4,5.1,4.26,2.53,2.9-4,8.07-8.62,5.94-14-2.39-6.05-10-9.34-10.43-16.24-.19-3.2-5.12-3.22-4.93,0Z"/><path class="cls-3" d="M273.89,212.48c5.06,13.57,19.65,16.05,32.36,15.47,3.16-.15,3.18-5.15,0-5-10.1.47-23.42-.57-27.6-11.79-1.11-3-5.88-1.69-4.76,1.33Z"/><path class="cls-5" d="M331,134.67c-12,0-21.84,11.42-22.73,25.88a15,15,0,0,0-7-1.74c-3.3.1-7.57,2.15-9.81,3.35-2-13.93-12.57-24.58-25.23-24.58s-23.26,10.71-25.25,24.7L212,165.82l.3,2.48,28.39-3.47c-.05.74-.08,1.48-.08,2.23,0,16.26,11.48,29.48,25.59,29.48s25.59-13.22,25.59-29.48c0-.74,0-1.48-.08-2.21,1.56-.88,6.34-3.44,9.6-3.54a13.6,13.6,0,0,1,6.89,2.05c.3,15.12,10.4,27.3,22.78,27.3,12.57,0,22.79-12.56,22.79-28S343.54,134.67,331,134.67ZM266.19,194c-12.75,0-23.12-12.1-23.12-27s10.37-27,23.12-27,23.12,12.11,23.12,27S278.94,194,266.19,194ZM331,188.15c-11.21,0-20.33-11.43-20.33-25.49s9.12-25.49,20.33-25.49,20.33,11.43,20.33,25.49S342.18,188.15,331,188.15Z"/><path class="cls-2" d="M431.33,1546.23s-3.78,73.07,4.87,85.31,26.45,22.34-5.69,25.31-58.08,1.19-58.08,0-7.57-83.16-7.57-83.16Z"/><path class="cls-2" d="M179.51,1584.38s-7.57,34.18-8.11,43.82-10.27,16.18-32.42,10.24-29.72-1.92-27.56-6.9,9.72-44.79,9.18-56.67S182.89,1568.37,179.51,1584.38Z"/><path class="cls-6" d="M441.56,1607.72c0,12.52-53.49,16.87-57.14,18.2a20.7,20.7,0,0,1-5.55.65c-8,.16-21.49-1.43-26.06-7.85-6.08-8.54-26.75-232-25.53-258.5s-49.54-370.48-49.54-370.48-11.26,141.67-16.12,168.4-66.87,458.43-68.09,467.78-51.06,8-57.14,7.8c-1.59-.06-4.59-1.08-8.22-2.76-10.26-4.73-25.56-14.73-28.26-23.24-3.65-11.54,9.73-198.31,15.81-271.82s6.08-188.45,7.29-254.06c.66-35.44,4.51-125.47,7.91-200.75.48-10.38.94-20.47,1.38-30.11,2.28-49.86,4.09-87.37,4.09-87.37a585.48,585.48,0,0,1,88.21-30.74c36-9.39,78.2-16.49,117.27-13.19,93.61,7.94,70.1,75,70.1,75S413,823,414.72,869q.3,8.17.62,17.1C423.11,1096.4,441.56,1597.81,441.56,1607.72Z"/><path class="cls-7" d="M378.87,1626.57c-8,.17-21.49-1.43-26.06-7.85-6.08-8.54-26.75-232-25.53-258.5s-49.55-370.48-49.55-370.48l8.1-34.82s64.44-8,62.82-4.45-51.88,45.14-53.5,46.18,31.62,210.11,41.34,242.8S352,1271,348.69,1284C346.08,1294.46,369.36,1531.36,378.87,1626.57Z"/><path class="cls-7" d="M128.17,1631c-10.26-4.73-25.57-14.73-28.26-23.25-3.65-11.53,9.73-198.3,15.81-271.81s6.08-188.45,7.29-254.07c.75-40.33,5.63-151.31,9.29-230.85,2.28-49.86,4.09-87.37,4.09-87.37a583.66,583.66,0,0,1,88.21-30.74q1.56,23.63,2.25,52.67S122.09,1336.87,128.17,1631Z"/><path class="cls-7" d="M83.32,1684.18s25.4-68.32,33-65.94,24.86,7.72,31.88,7.72,24.86-4.75,27.56,0,6.49,76.63,5.95,82.57-1.62,4.75-4.32,8.32-44.32,4.75-49.72,4.75-41.61-16-44.31-20.2S83.32,1684.18,83.32,1684.18Z"/><path class="cls-7" d="M368.65,1707.94c-.54-1.79-9.73-30.89-6.49-42.18S368.11,1631,373,1628.2s11.35.6,14.59,3.34,13.51,8.68,18.92,6.3,21.07-23.88,28.1-19.66,30.26,28.57,38.91,32.14,51.33,16,57.28,23.16,5.4,29.7,3.78,30.89-112.4,1.79-116.19,1.19-13.51-13.07-14.05-10.1-1.08,8.32-5.4,10.1S369.71,1711.49,368.65,1707.94Z"/><path class="cls-7" d="M415.34,886.07c-35.32,11.34-72.82,22.43-84.6,22.43-24.14,0-47.46-32.69-47.46-32.69s-36.76,27.46-46,23.46c-6.14-2.65-66.43-12.11-106.35-18.18.48-10.38.94-20.47,1.38-30.11,2.28-49.86,4.09-87.37,4.09-87.37a585.48,585.48,0,0,1,88.21-30.74c36-9.39,78.2-16.49,117.27-13.19,93.61,7.94,70.1,75,70.1,75S413,823,414.72,869Q415,877.15,415.34,886.07Z"/><path class="cls-8" d="M334.18,569.38c-31.95,61.09-66.59,15-93.77-47.89-5.2-12-10.11-24.63-14.68-37.24-.21-.56-.41-1.13-.61-1.69C196.58,403.34,207.74,281,207.74,281h0c1,.36,67.21,24.67,75.47,23.59s41.84-17.19,41.84-17.19,17.21,75.74,22.52,152C351.1,489.69,349.43,540.24,334.18,569.38Z"/><path class="cls-9" d="M347.58,439.36a312,312,0,0,1-31.73,21.44l-2.58-142.89-25.37,9.81,10.49,196.93-58-3.16c-5.2-12-10.11-24.63-14.68-37.24l5-78.84,31.33,84.68s-.38-57.64-1.58-94.36-5.1-60.81-5.57-63.15-10.11,7-17.58-1S208.15,281.77,207.75,281c1,.36,67.21,24.67,75.47,23.59s41.84-17.19,41.84-17.19S342.27,363.12,347.58,439.36Z"/><path class="cls-10" d="M332.78,595.78,284.54,584s-5.76-19.69-7.4-32.14c-1.21-9.28-4.5-123.94-6.09-181.65-.54-19.68-.89-32.74-.89-32.74l18.52,8,2.83,16.06Z"/><path class="cls-11" d="M291.51,361.53l-20.46,8.69c-.54-19.68-.89-32.74-.89-32.74l18.52,8Z"/><path class="cls-10" d="M256.29,312.28s10.83,39.29,17.06,40.79,15.06,2.86,16.4-.85,12.59-31.61,7.78-43.8-23-14.73-30.36-11.88S255,307.8,256.29,312.28Z"/><path class="cls-5" d="M207.74,281s17.29-12.29,20.73-12.11,47.4,26,51.5,24.41,17.26-22.4,19.46-20.53,25.63,14.64,25.63,14.64L303.92,318.2a7.67,7.67,0,0,1-13-.47l-10.7-18.29s-17.81,21.9-24.13,22.14S216.58,298.18,207.74,281Z"/><path class="cls-2" d="M513.54,398.12s8.5-34.6,13-40.69,23.16-20.28,33.66-21.82,16.1-5,12.35,2.78-17,14.84-17,14.84,28.35-8.73,32.74-12.71,25.72-29,28.21-28.88,6.61,1.21,6.91,3.34-2.52,8.31-2.52,8.31,6.59-6.4,7.74-4.65.56,5.1-.42,8-21.56,37.27-24.65,40.48-36.79,27.95-43,33.56-15.8,15.19-15.8,15.19Z"/><path class="cls-3" d="M580.16,367.54a1.27,1.27,0,0,1-.39-2.44c.14-.06,14.65-5.89,18.41-10.32,3.9-4.6,21.43-31.91,21.61-32.18a1.23,1.23,0,0,1,1.73-.37,1.28,1.28,0,0,1,.36,1.75c-.72,1.13-17.8,27.72-21.81,32.45-4.16,4.9-18.77,10.77-19.39,11A1.19,1.19,0,0,1,580.16,367.54Z"/><path class="cls-6" d="M570.64,401.6c.17,4.81-94.5,190.94-108.82,201.22s-27.06,7-33.07,6.64-35.92-36.88-35.92-36.88L407.9,369.94l3.46-46.68s16.41,12.93,19.64,24.89S452.92,488,454.34,484.87s-1.56-3.73,1.42-3.13a7.47,7.47,0,0,1,4.55,3.46s46.94-105.83,49.14-106.58,18.5.13,20.48,3.3,1.31,15.78,1.31,15.78,8.4-12.2,9.69-12.13c1,.06,19,7.07,26.46,12.36C569.35,399.33,570.6,400.6,570.64,401.6Z"/><path class="cls-7" d="M570.64,401.6c.17,4.81-94.5,190.94-108.82,201.22s-27.06,7-33.07,6.64-35.92-36.88-35.92-36.88L407.9,369.94c4.86,1.62,7.45,8.25,6.93,21.41,0,0-.24,176.75,5.85,175.55s35.08-85.16,35.08-85.16l4.55,3.46s-37,97.53-22.9,107.15c13.62,9.27,94-123.91,130-194.42C569.35,399.33,570.6,400.6,570.64,401.6Z"/><path class="cls-6" d="M429.84,864.23c-6.61,4.75-19.64,6.63-36.59,8.65-25.13,3-68.49-7.23-82.95-10.46S282.65,840.89,281,837,294,590.75,294,590.75s.7-2.11,1.9-6.12h0c3.73-12.64,12.2-44.07,18-87.06.78-5.82,1.52-12.66,2.21-20.25,6.08-66.29,8.95-189.95,8.95-189.95h0c1.06.37,91.25,31.76,93.26,42.29s-14,270.59-15.24,293.22S434.44,842.83,434.65,855A10.49,10.49,0,0,1,429.84,864.23Z"/><path class="cls-7" d="M429.84,864.23c-6.61,4.75-19.64,6.63-36.59,8.65-25.13,3-68.49-7.23-82.95-10.46S282.65,840.89,281,837,294,590.75,294,590.75s.7-2.11,1.9-6.12h0c3.73-12.64,12.2-44.07,18-87.06.78-5.82,1.52-12.66,2.21-20.25A220.59,220.59,0,0,1,345,482s-35.64,79.34-34.84,86.08,14.21,33.65,14.21,33.65S295.06,823,311.65,841C323,853.22,381.81,868.7,429.84,864.23Z"/><path class="cls-12" d="M362.1,443.38c-.92,6.69-65.49,139.82-66.18,141.25,3.73-12.64,12.2-44.07,18-87.06,7.6-56.61,11.16-210.2,11.16-210.2h0c.51.83,33.87,53.85,35.08,63.16s-28.77,33.92-27.3,38.66S363,436.67,362.1,443.38Z"/><path class="cls-12" d="M351,549.35s16.57,4,28.32,1.55,17.65-4.06,17.82-3.18.6,4.84-.35,6.53-10.8,7-24.31,7-21.89-.1-22-2.72S349.39,549,351,549.35Z"/><path class="cls-12" d="M361,733.78s58.09-13.12,61.52-7.4,11.26,25.63,9.71,27.88-7.83,6.84-29.66,7.4-36.47.33-38-3.82S356.88,734.69,361,733.78Z"/><path class="cls-7" d="M360.1,762.25s6.4,63.19,9.48,64.53,54.09-2.58,54.09-2.58-57.29,14.33-59.44,11.6S360.1,762.25,360.1,762.25Z"/><path class="cls-6" d="M300.63,752.76c-4.49,25.86-9.9,51.77-14.24,71.45-4.05,18.39-7.16,31.34-7.71,33.79-1.13,5.07-55.22,18.7-74.24,20.28s-97.7-13.57-96.26-21.84,50.23-198.72,51.55-214.88c.17-2.11-.28-6.48-1.2-12.49-3.2-20.9-12.05-61.61-19.75-95.68-7-31.05-13.1-56.57-13.1-56.57L121.32,444l-14.87-111.8s17-13,26.37-18.2,73.79-36.13,74.92-33,24.2,160.34,47.45,208.74c20.35,42.34,52.29,89.32,61.27,105.18h0a26.52,26.52,0,0,1,2.34,4.79C320.71,606.76,309.31,702.76,300.63,752.76Z"/><path class="cls-7" d="M138.78,533.39c-7-31.05-13.1-56.57-13.1-56.57L121.32,444c12.58-8.62,24.51-14.43,35.46-17C156.78,427,159.32,478.09,138.78,533.39Z"/><path class="cls-7" d="M286.39,824.21c-4.05,18.39-7.16,31.34-7.71,33.79-1.13,5.07-55.22,18.7-74.24,20.28s-97.7-13.57-96.26-21.84,50.23-198.72,51.55-214.88c.17-2.11-.28-6.48-1.2-12.49,44.11,3.84,120.42,12.44,129,13.7,9.39,1.39-13.59,174.9-4.4,180.11A15.28,15.28,0,0,0,286.39,824.21Z"/><path class="cls-12" d="M167.57,551.09a2.59,2.59,0,0,1,2.8-2.47c5.49.51,18.48,1.57,29.44,1.5,10-.07,18.66-.77,23-1.18a2.59,2.59,0,0,1,2.82,2.74l-.3,5.6a2.61,2.61,0,0,1-2,2.4c-2.93.75-9.83,2-24.2,2-15.62.06-25.71-1.69-29.86-2.58a2.62,2.62,0,0,1-2-2.7Z"/><path class="cls-12" d="M316.46,594.89C261.6,552.3,182.17,414,181.14,409.14s24.07-31.85,24.23-34.9S176.05,350.82,172,345.36,207.74,281,207.74,281c1.12,3.12,24.2,160.34,47.45,208.74C275.54,532.05,307.48,579,316.46,594.89Z"/><path class="cls-13" d="M259.55,842.75l-236-12.88a10.38,10.38,0,0,1-9.73-9.61l-.27-3.38L0,644.71a10.45,10.45,0,0,1,8.81-11.19,11.45,11.45,0,0,1,2-.09l241.37,13.18a10.4,10.4,0,0,1,9.75,9.94l8.41,175.26A10.38,10.38,0,0,1,259.55,842.75Z"/><path class="cls-14" d="M194,839.18,23.52,829.87a10.38,10.38,0,0,1-9.73-9.61l-.27-3.38,55.81,3L8.84,633.52a11.45,11.45,0,0,1,2-.09l115.7,6.32Z"/><path class="cls-2" d="M85.9,792.38s3,24.31,3.33,29-1,19.43-1,19.43,11.89,11.71,17.62,10.28,6.77-4.87,6.77-4.87a19,19,0,0,0,10.2,2.59c5.75-.27,7.4-4.25,7.4-4.25s1.75,4.75,9,3.11,8.58-4.77,8.58-4.77,2.19,1.87,8.81,1.65,9.3-7.64,9.3-7.64-11.57-9.18-12.57-11.94.41-24-2.65-31.11S140.37,777,140.37,777Z"/><path class="cls-5" d="M73.91,780.38s2.2,12.63,5.76,15.73,43.34-5.49,44.47-5.28,20.24-11,21.86-13.21-8.83-32.2-8.83-32.2-22.06-6.15-39.34.47S71.38,763.07,73.91,780.38Z"/><path class="cls-6" d="M146.26,768.9c-.83,1.69-5.12,4.34-10,6.51-6.65,2.93-14.43,5-16.28,2.53-3.22-4.24-13.26-20.5-14-18.22s4.74,18.89,2.26,22.24-39.1,12.41-40.42,4.78S6.09,598.32,7.35,585.58s64.45-176.3,78-204.07,17.1-46.5,21.12-49.33a95.73,95.73,0,0,1,28.88,23.29,78.81,78.81,0,0,1,16.28,31.4c9.48,37.76,6.26,55-10,90.24s-47.26,101-46,109.22,31.1,105.87,37.95,128.35S148.19,764.94,146.26,768.9Z"/><path class="cls-7" d="M146.26,768.9c-.83,1.69-5.12,4.34-10,6.51C115.33,699.5,87.4,598.88,85.4,596.24c-3.22-4.24-14.14-3.68-19.81-5.15s3.71-5,13.27-12.08,62.16-122.3,66.7-164.54c2.12-19.76-3.57-41.48-10.23-59a78.81,78.81,0,0,1,16.28,31.4c9.48,37.76,6.26,55-10,90.24s-47.26,101-46,109.22,31.1,105.87,37.95,128.35S148.19,764.94,146.26,768.9Z"/><path class="cls-3" d="M111.92,847c.84,1.46-1.46,2.64-2.29,1.2A26.77,26.77,0,0,1,106.16,831c.21-1.67,2.78-1.53,2.57.14A24.39,24.39,0,0,0,111.92,847Z"/><path class="cls-3" d="M147.13,843.36a21.56,21.56,0,0,1-8-12.53,1.29,1.29,0,0,1,2.52-.55,18.71,18.71,0,0,0,6.87,10.9C149.86,842.19,148.46,844.38,147.13,843.36Z"/><path class="cls-3" d="M130,844.41c.89,1.42-1.41,2.59-2.3,1.19a21.67,21.67,0,0,1-3.26-14.17c.19-1.67,2.76-1.53,2.58.14A19.38,19.38,0,0,0,130,844.41Z"/><rect class="cls-9" x="665.79" y="22.85" width="388.77" height="16.06" rx="4.8"/><rect class="cls-9" x="665.79" y="307.93" width="388.77" height="16.06" rx="4.8"/><rect class="cls-8" x="673.71" y="38.91" width="372.15" height="269.02"/><rect class="cls-5" x="683.87" y="46.12" width="297.16" height="214.81"/><rect class="cls-15" x="863.47" y="71.03" width="61.5" height="24.09" rx="4.8"/><ellipse class="cls-5" cx="874.26" cy="80.09" rx="3.93" ry="3.98"/><rect class="cls-5" x="883.93" y="77.72" width="32.86" height="2.38" rx="1.11"/><rect class="cls-5" x="883.93" y="82.89" width="22.57" height="2.38" rx="1.11"/><rect class="cls-10" x="701.75" y="212.94" width="61.5" height="24.09" rx="4.8"/><ellipse class="cls-5" cx="712.54" cy="222" rx="3.93" ry="3.98"/><rect class="cls-5" x="722.2" y="219.63" width="32.86" height="2.38" rx="1.19"/><rect class="cls-5" x="722.2" y="224.8" width="22.57" height="2.38" rx="1.19"/><path class="cls-6" d="M834.85,107.67l-2.4-2.1,16.31-19.08a11.38,11.38,0,0,1,8.68-4h6v3.21h-6a8.26,8.26,0,0,0-6.29,2.91Z"/><polygon class="cls-6" points="757.96 99.63 735.2 78.91 737.32 76.52 760.08 97.24 757.96 99.63"/><path class="cls-6" d="M729.92,214.74h-3.16V195.69a11.8,11.8,0,0,1,3.45-8.33l15.23-15.09,2.22,2.3-15.23,15.09a8.53,8.53,0,0,0-2.51,6Z"/><path class="cls-15" d="M849.88,141.88c0,33.3-26,60.42-58.59,61.58v-22.9c20.09-1.14,36-18,36-38.68a38.83,38.83,0,0,0-18.13-33l8.23-21.58A61.7,61.7,0,0,1,849.88,141.88Z"/><path class="cls-10" d="M791.29,180.56v22.9c-.72,0-1.45,0-2.18,0-33.56,0-60.77-27.58-60.77-61.62a61.87,61.87,0,0,1,15-40.49l16.85,15.22a38.9,38.9,0,0,0-9.24,25.27c0,21.4,17.1,38.74,38.2,38.74C789.84,180.62,790.57,180.6,791.29,180.56Z"/><path class="cls-13" d="M817.42,87.34l-8.23,21.58a37.83,37.83,0,0,0-49,7.69L743.3,101.39a60.19,60.19,0,0,1,74.12-14Z"/><rect class="cls-13" x="695.94" y="55.82" width="61.5" height="24.09" rx="4.8"/><ellipse class="cls-5" cx="706.73" cy="64.89" rx="3.93" ry="3.98"/><rect class="cls-5" x="716.4" y="62.51" width="32.86" height="2.38" rx="1.11"/><rect class="cls-5" x="716.4" y="67.68" width="22.57" height="2.38" rx="1.11"/><rect class="cls-15" x="865.86" y="179.08" width="13.9" height="45.99" rx="2.4"/><rect class="cls-15" x="893.66" y="150.48" width="13.9" height="74.59" rx="2.4"/><rect class="cls-15" x="921.46" y="160.43" width="13.9" height="64.64" rx="2.4"/><rect class="cls-15" x="949.25" y="135.97" width="13.9" height="89.1" rx="2.4"/><rect class="cls-15" x="977.05" y="166.23" width="13.9" height="58.84" rx="2.4"/><rect class="cls-15" x="1004.84" y="119.81" width="13.9" height="105.26" rx="2.4"/><path class="cls-16" d="M879.76,196.46v27.37a1.23,1.23,0,0,1-1.23,1.24H867.09a1.23,1.23,0,0,1-1.23-1.24V187.6A85.43,85.43,0,0,0,879.76,196.46Z"/><path class="cls-16" d="M907.56,206.45v17.38a1.23,1.23,0,0,1-1.23,1.24H894.88a1.23,1.23,0,0,1-1.22-1.24V202.41A131.13,131.13,0,0,0,907.56,206.45Z"/><path class="cls-16" d="M935.35,210.21v13.62a1.23,1.23,0,0,1-1.22,1.24H922.68a1.24,1.24,0,0,1-1.23-1.24V209C926,209.58,930.61,210,935.35,210.21Z"/><path class="cls-16" d="M963.15,209.08v14.75a1.23,1.23,0,0,1-1.23,1.24H950.48a1.23,1.23,0,0,1-1.23-1.24V210.24Q956.36,210,963.15,209.08Z"/><path class="cls-16" d="M990.94,202.67v21.16a1.22,1.22,0,0,1-1.22,1.24H978.27a1.23,1.23,0,0,1-1.22-1.24V206.62A131.6,131.6,0,0,0,990.94,202.67Z"/><path class="cls-16" d="M1018.74,188.19v35.64a1.23,1.23,0,0,1-1.23,1.24h-11.44a1.23,1.23,0,0,1-1.23-1.24v-27A87.48,87.48,0,0,0,1018.74,188.19Z"/><path class="cls-13" d="M861.81,216a1.62,1.62,0,0,1-1.38-.77,1.68,1.68,0,0,1,.5-2.29l90.75-58.58a6.51,6.51,0,0,1,8.54,1.35l30.88,37.57,34.06-32a1.62,1.62,0,0,1,2.31.09,1.69,1.69,0,0,1-.09,2.35l-36.59,34.33L957.71,157.8a3.26,3.26,0,0,0-4.27-.67l-90.75,58.58A1.58,1.58,0,0,1,861.81,216Z"/><rect class="cls-9" x="964.56" y="59.79" width="13.99" height="14.18" rx="3.2"/><rect class="cls-9" x="964.56" y="84.07" width="13.99" height="14.18" rx="3.2"/><rect class="cls-9" x="987.65" y="61.79" width="36.03" height="2.94" rx="1.47"/><rect class="cls-9" x="987.65" y="68.89" width="21.77" height="2.94" rx="1.47"/><rect class="cls-9" x="987.65" y="86.15" width="36.03" height="2.94" rx="1.47"/><rect class="cls-9" x="987.65" y="93.24" width="21.77" height="2.94" rx="1.47"/><ellipse class="cls-12" cx="821.24" cy="263.45" rx="22.7" ry="23.02"/><path class="cls-9" d="M843.94,263.45h-22.7v-23A22.85,22.85,0,0,1,843.94,263.45Z"/><ellipse class="cls-9" cx="888.56" cy="263.45" rx="22.7" ry="23.02"/><path class="cls-5" d="M888.56,286.47v-23h22.7A22.86,22.86,0,0,1,888.56,286.47Z"/><rect class="cls-9" x="942.39" y="244.99" width="76.35" height="5.08" rx="2.54"/><rect class="cls-9" x="942.39" y="258.37" width="76.35" height="5.08" rx="2.54"/><rect class="cls-9" x="942.39" y="271.75" width="76.35" height="5.08" rx="2.54"/><rect class="cls-9" x="942.39" y="285.13" width="76.35" height="5.08" rx="2.54"/><path class="cls-10" d="M475.36,188.9v69.26a2.15,2.15,0,0,1-2.13,2.16H445.94a2.16,2.16,0,0,1-2.13-2.16V188.9a2.15,2.15,0,0,1,2.13-2.16h27.29A2.14,2.14,0,0,1,475.36,188.9Z"/><path class="cls-13" d="M523.85,169.77v87.81c0,1.5-.94,2.74-2.13,2.74H494.44c-1.17,0-2.13-1.24-2.13-2.74V169.77c0-1.51,1-2.74,2.13-2.74h27.28C522.91,167,523.85,168.26,523.85,169.77Z"/><path class="cls-15" d="M572.35,144.38V256.81c0,1.93-1,3.51-2.13,3.51H542.94c-1.18,0-2.13-1.58-2.13-3.51V144.38c0-1.93,1-3.51,2.13-3.51h27.28C571.4,140.87,572.35,142.45,572.35,144.38Z"/><path class="cls-15" d="M620.85,110.45V255.79c0,2.49-1,4.53-2.13,4.53H591.43c-1.17,0-2.13-2-2.13-4.53V110.45c0-2.49,1-4.53,2.13-4.53h27.29C619.9,105.92,620.85,108,620.85,110.45Z"/><path class="cls-17" d="M603.71,62.63,593.2,88.93l-6.69-10.48-155,81.74a3.63,3.63,0,0,1-5.23-2.5,3.46,3.46,0,0,1-.09-.78,3.72,3.72,0,0,1,1.9-3.25L581.42,69l-4.78-11.83Z"/><rect class="cls-14" x="758.08" y="542.28" width="178.54" height="37.28" rx="2.4"/><rect class="cls-13" x="782.67" y="542.28" width="11.76" height="37.28"/><rect class="cls-13" x="807.26" y="542.28" width="25.66" height="37.28"/><rect class="cls-14" x="761.29" y="616.83" width="178.54" height="37.28" rx="2.4"/><rect class="cls-13" x="785.88" y="616.83" width="11.76" height="37.28"/><rect class="cls-13" x="810.47" y="616.83" width="25.66" height="37.28"/><rect class="cls-18" x="804.05" y="579.55" width="178.54" height="37.28" rx="2.4"/><rect class="cls-14" x="828.64" y="579.55" width="11.76" height="37.28"/><rect class="cls-14" x="853.23" y="579.55" width="25.66" height="37.28"/><ellipse class="cls-13" cx="850.04" cy="464.81" rx="78.66" ry="77.46"/><ellipse class="cls-14" cx="850.04" cy="464.81" rx="57.82" ry="56.94"/><path class="cls-18" d="M907.86,464.81c0,31.45-25.89,56.95-57.82,56.95s-57.82-25.5-57.82-56.95a55.86,55.86,0,0,1,4.29-21.54,58.17,58.17,0,0,0,107.06,0A55.86,55.86,0,0,1,907.86,464.81Z"/><path class="cls-13" d="M845.24,497.6a35.63,35.63,0,0,1-10.2-2.93,28.83,28.83,0,0,1-8.11-5.45l3.53-5.18a3.69,3.69,0,0,1,1.23-1.12,3.18,3.18,0,0,1,1.6-.43,4.2,4.2,0,0,1,2.19.71c.77.47,1.65,1,2.65,1.67a36.61,36.61,0,0,0,3.39,1.92,16.38,16.38,0,0,0,4.51,1.42l1.76-20.51c-2.2-.61-4.37-1.33-6.53-2.15a22.2,22.2,0,0,1-5.81-3.29,15.28,15.28,0,0,1-4.16-5.17,18.55,18.55,0,0,1-.16-14.62,18.26,18.26,0,0,1,4.11-6,22.1,22.1,0,0,1,6.65-4.32,22.77,22.77,0,0,1,9.06-1.7l.51-5.83a3.29,3.29,0,0,1,.93-2,2.88,2.88,0,0,1,2.19-.88h4.23l-.79,9a25.75,25.75,0,0,1,8.5,2.74,30.73,30.73,0,0,1,6.23,4.44L870,442.16a5.75,5.75,0,0,1-1.3,1.37,2.7,2.7,0,0,1-1.58.46,4.07,4.07,0,0,1-1.65-.44c-.64-.29-1.36-.64-2.19-1.05s-1.72-.83-2.71-1.26a18.78,18.78,0,0,0-3.3-1.05l-1.63,19q3.35,1,6.62,2.22a23.7,23.7,0,0,1,5.9,3.13,15.19,15.19,0,0,1,4.26,4.79,14.34,14.34,0,0,1,1.62,7.16,21.91,21.91,0,0,1-1.44,8,19.56,19.56,0,0,1-4.2,6.6,21.54,21.54,0,0,1-6.81,4.64,27.5,27.5,0,0,1-9.25,2.15l-.56,6.73a3.23,3.23,0,0,1-.93,1.95,2.85,2.85,0,0,1-2.18.89H844.4Zm-4.7-49.35a7.25,7.25,0,0,0,.61,3.07,7.33,7.33,0,0,0,1.69,2.35,12.3,12.3,0,0,0,2.58,1.84,25.18,25.18,0,0,0,3.26,1.44L850.12,440a17.23,17.23,0,0,0-4.37,1.08,9.59,9.59,0,0,0-3,1.86,6.76,6.76,0,0,0-1.69,2.45A7.62,7.62,0,0,0,840.54,448.25Zm22.59,29.94a6.91,6.91,0,0,0-.63-3,7.4,7.4,0,0,0-1.76-2.31,11.47,11.47,0,0,0-2.68-1.74,28,28,0,0,0-3.34-1.33l-1.58,18.58q4.92-.64,7.46-3.27A9.54,9.54,0,0,0,863.13,478.19Z"/></g></g></svg>