<svg xmlns="http://www.w3.org/2000/svg" xmlns:xlink="http://www.w3.org/1999/xlink" viewBox="0 0 163.16 125.31"><defs><style>.cls-1{fill:#eceae9;}.cls-2{fill:#231f20;}.cls-3{fill:#201c1d;}.cls-4{fill:#d3d4d6;}.cls-5{fill:url(#radial-gradient);}.cls-6{fill:url(#radial-gradient-2);}.cls-7{fill:url(#radial-gradient-3);}.cls-8{fill:url(#radial-gradient-4);}.cls-9{fill:url(#radial-gradient-5);}.cls-10{fill:url(#radial-gradient-6);}.cls-11{fill:url(#radial-gradient-7);}.cls-12{fill:url(#radial-gradient-8);}.cls-13{fill:url(#radial-gradient-9);}.cls-14{fill:url(#radial-gradient-10);}</style><radialGradient id="radial-gradient" cx="286.94" cy="565.03" r="2.96" gradientTransform="matrix(1.35, -0.36, 0.36, 1.35, -556.09, -636.29)" gradientUnits="userSpaceOnUse"><stop offset="0" stop-color="#ee462d"/><stop offset="0.23" stop-color="#e13e2c"/><stop offset="0.7" stop-color="#ca312a"/><stop offset="1" stop-color="#c22c29"/></radialGradient><radialGradient id="radial-gradient-2" cx="305.28" cy="593.94" r="9.63" xlink:href="#radial-gradient"/><radialGradient id="radial-gradient-3" cx="287.02" cy="574.92" r="3.95" xlink:href="#radial-gradient"/><radialGradient id="radial-gradient-4" cx="-606.51" cy="-683.33" r="2.65" gradientTransform="matrix(1.21, 0.7, -0.7, 1.21, 361.57, 1271)" xlink:href="#radial-gradient"/><radialGradient id="radial-gradient-5" cx="-602.1" cy="-683.28" r="2.97" gradientTransform="matrix(1.21, 0.7, -0.7, 1.21, 361.57, 1271)" xlink:href="#radial-gradient"/><radialGradient id="radial-gradient-6" cx="-586.91" cy="-655.68" r="8.51" gradientTransform="matrix(1.21, 0.7, -0.7, 1.21, 361.57, 1271)" xlink:href="#radial-gradient"/><radialGradient id="radial-gradient-7" cx="-603.9" cy="-674.31" r="3.9" gradientTransform="matrix(1.21, 0.7, -0.7, 1.21, 361.57, 1271)" xlink:href="#radial-gradient"/><radialGradient id="radial-gradient-8" cx="-2672.08" cy="2952.77" r="2.65" gradientTransform="matrix(-1.21, -0.7, 0.7, -1.21, -5185.81, 1820.98)" xlink:href="#radial-gradient"/><radialGradient id="radial-gradient-9" cx="-2667.67" cy="2952.82" r="2.97" gradientTransform="matrix(-1.21, -0.7, 0.7, -1.21, -5185.81, 1820.98)" xlink:href="#radial-gradient"/><radialGradient id="radial-gradient-10" cx="-2669.47" cy="2961.78" r="3.9" gradientTransform="matrix(-1.21, -0.7, 0.7, -1.21, -5185.81, 1820.98)" xlink:href="#radial-gradient"/></defs><g id="Capa_2" data-name="Capa 2"><g id="Layer_1" data-name="Layer 1"><path class="cls-1" d="M107.17,83.12a2.91,2.91,0,0,1-1.06,4L49.93,119.54a2.91,2.91,0,0,1-4-1.07L.39,39.57a2.92,2.92,0,0,1,1.07-4L57.64,3.15a2.9,2.9,0,0,1,4,1.07Z"/><path class="cls-2" d="M10.13,44.77c0-2.3-.2-6.61-.32-7.87,0-.3-.07-.64-.13-.93a4.07,4.07,0,0,0,.58-.3,5.18,5.18,0,0,0,.57-.36,7.85,7.85,0,0,0,.49.64c1,1.18,3.37,4.17,4.29,5.19s1,1,2.05.61c.08,0,.22.32.17.39-.34.19-.87.44-1.85,1-1.15.67-1.58,1-2,1.2a.55.55,0,0,1-.2-.37,2.7,2.7,0,0,0,.63-.58.47.47,0,0,0,0-.39c-.32-.5-1.22-1.59-1.6-2a.09.09,0,0,0-.12,0c-.19.09-.6.33-.94.53-.5.28-.84.46-1,.57s-.08.11-.08.2a16.11,16.11,0,0,0,.23,2.65.41.41,0,0,0,.57.26l.76-.26a.49.49,0,0,1,.16.39c-.27.16-1,.5-1.73,1s-1.15.71-1.4.86c-.08,0-.21-.31-.18-.38C9.94,46,10.13,45.85,10.13,44.77Zm.51-3.55c0,.05,0,.09.07.06s.43-.22.78-.42c.52-.3.72-.42.81-.49a.07.07,0,0,0,0-.1c-.39-.49-1.29-1.65-1.84-2.3a.06.06,0,0,0-.06,0C10.49,39.1,10.57,40.42,10.64,41.22Z"/><path class="cls-3" d="M66,70,55.58,76s3.54-1.55,1.78-8.92C57.36,67.1,60.94,71.57,66,70Z"/><path class="cls-3" d="M57,69.69l.33-2.59,2.47.71c4.28.62,5.83-.6,6.7-1.74a9.14,9.14,0,0,0,.69-9.9c-2.25-3.91-8.94-4.5-14.67-5.59-2-.37-3.76-.73-5.36-1.15a44.91,44.91,0,0,1-2.56,8.26c-1.92,5-4.18,9-2.05,12.71,2,3.42,6.85,4.74,10.23,4C55.17,73.88,56.54,71.63,57,69.69Z"/><path class="cls-3" d="M22.53,55.28l-4.27,2.46s1.46-.63.73-3.66A3.52,3.52,0,0,0,22.53,55.28Z"/><path class="cls-3" d="M18.86,55.14,19,54.08l1,.29c1.76.26,2.39-.25,2.75-.71a3.79,3.79,0,0,0,.29-4.07c-.93-1.6-3.68-1.85-6-2.29-.81-.16-1.55-.3-2.2-.48a19.57,19.57,0,0,1-1.05,3.4c-.79,2.06-1.72,3.7-.85,5.22a4.13,4.13,0,0,0,4.21,1.64A2.51,2.51,0,0,0,18.86,55.14Z"/><path class="cls-4" d="M116.14,90.17a2.91,2.91,0,0,1-2.06,3.57L51.42,110.53a2.93,2.93,0,0,1-3.57-2.07l-23.58-88a2.91,2.91,0,0,1,2.06-3.57L89,.1a2.91,2.91,0,0,1,3.57,2.06Z"/><path class="cls-1" d="M117,90.17a2.93,2.93,0,0,1-2.07,3.57L52.26,110.53a2.93,2.93,0,0,1-3.57-2.07l-23.58-88a2.92,2.92,0,0,1,2.06-3.57L89.83.1A2.91,2.91,0,0,1,93.4,2.16Z"/><path class="cls-5" d="M33,21.23c0,.05-.33-.16-.32-.23a4.28,4.28,0,0,1,2.65-2.77,2.32,2.32,0,0,1,2.85,1.71c.31,1.17,0,2.27-1.14,3.95-.47.67-.9,1.27-1.46,2.05,0,0,0,.1,0,.08.51-.1,2.28-.58,2.92-.78.31-.1.63-.33.91-1.29,0-.05.35,0,.37.09a11.78,11.78,0,0,1-.48,2.46c0,.19-.27.31-.76.46-1.07.32-2.86.72-4,1-.3.08-.79.21-1,.31a3.27,3.27,0,0,1-.06-.42,17.73,17.73,0,0,0,2.37-3.32,4.31,4.31,0,0,0,.6-3.4,1.54,1.54,0,0,0-1.89-1.23A2.57,2.57,0,0,0,33,21.23Z"/><polygon class="cls-6" points="75.08 70.35 60.48 58.15 67.02 40.27 81.62 52.48 75.08 70.35"/><polygon class="cls-7" points="41.16 42.41 35.17 37.4 37.85 30.06 43.85 35.07 41.16 42.41"/><path class="cls-4" d="M106.77,109.54a2.91,2.91,0,0,1-3.57,2.06L40.55,94.81a2.93,2.93,0,0,1-2.07-3.57l23.58-88a2.93,2.93,0,0,1,3.57-2.06L128.3,18a2.93,2.93,0,0,1,2.06,3.57Z"/><path class="cls-1" d="M107.62,109.54a2.92,2.92,0,0,1-3.57,2.06L41.39,94.81a2.93,2.93,0,0,1-2.07-3.57l23.59-88a2.92,2.92,0,0,1,3.57-2.06L129.13,18a2.93,2.93,0,0,1,2.07,3.57Z"/><path class="cls-2" d="M67.7,13.79C69.34,12.17,72.24,9,73.05,8c.19-.23.4-.5.56-.74a5.39,5.39,0,0,0,.63.2c.32.08.57.13.65.14,0,.2-.09.56-.11.81-.13,1.52-.56,5.32-.64,6.7s0,1.46,1,1.88c0,.06-.08.38-.16.39-.37-.1-.93-.3-2-.59-1.29-.35-1.79-.45-2.25-.56a.51.51,0,0,1,.13-.4,2.67,2.67,0,0,0,.84,0,.44.44,0,0,0,.28-.28c.12-.58.26-2,.32-2.58a.09.09,0,0,0-.06-.11c-.19-.07-.66-.19-1-.29-.56-.15-.93-.27-1.11-.3s-.14,0-.2.09a16,16,0,0,0-1.7,2,.4.4,0,0,0,.21.59c.24.13.5.24.72.35,0,.08-.1.38-.16.39-.3-.08-1-.32-1.89-.55-.69-.19-1.32-.31-1.61-.38a.55.55,0,0,1,.14-.4C66.68,14.54,66.94,14.55,67.7,13.79Zm2.88-2.15s0,.08,0,.09.46.14.85.25c.59.16.81.21.92.23s.07,0,.08-.06c.07-.62.25-2.08.32-2.93a0,0,0,0,0-.06,0C72,10,71.09,11,70.58,11.64Z"/><path class="cls-3" d="M85.27,60.72a7.13,7.13,0,1,1-5-8.73A7.13,7.13,0,0,1,85.27,60.72Z"/><path class="cls-3" d="M96.86,63.83a7.13,7.13,0,1,1-5-8.73A7.13,7.13,0,0,1,96.86,63.83Z"/><path class="cls-3" d="M93.77,51.93a7.13,7.13,0,1,1-5-8.73A7.13,7.13,0,0,1,93.77,51.93Z"/><path class="cls-3" d="M87.31,71.92l-11.59-3.1s3.83.52,7.46-4.67A9.16,9.16,0,0,0,87.31,71.92Z"/><path class="cls-3" d="M68.47,25.87a2.93,2.93,0,1,1-2.07-3.59A2.92,2.92,0,0,1,68.47,25.87Z"/><path class="cls-3" d="M73.23,27.15a2.93,2.93,0,1,1-2.07-3.59A2.92,2.92,0,0,1,73.23,27.15Z"/><path class="cls-3" d="M72,22.26a2.93,2.93,0,1,1-2.07-3.59A2.93,2.93,0,0,1,72,22.26Z"/><path class="cls-3" d="M69.18,31l-4.76-1.28a5.36,5.36,0,0,0,3.2-2.39A5.09,5.09,0,0,0,69.18,31Z"/><path class="cls-4" d="M116,123.85a2.91,2.91,0,0,1-4,1.06L55.79,92.48a2.92,2.92,0,0,1-1.07-4L100.28,9.59a2.91,2.91,0,0,1,4-1.06L160.44,41a2.92,2.92,0,0,1,1.07,4Z"/><path class="cls-1" d="M117.22,123.85a2.92,2.92,0,0,1-4,1.06L57.05,92.48a2.91,2.91,0,0,1-1.06-4L101.54,9.59a2.91,2.91,0,0,1,4-1.06L161.7,41a2.91,2.91,0,0,1,1.07,4Z"/><path class="cls-8" d="M104.6,24.79c-.79-.46-1.23-.77-2-1.23s-1.34-.72-2.07-1.14c0-.07.18-.32.26-.33l.81.32c.46.14.73-.11,1.05-.48s1.06-1.24,2-2.39c.8-1,1.58-1.94,1.82-2.28s.25-.48,0-.65a6.45,6.45,0,0,0-.64-.51c0-.08.22-.31.27-.31a10.2,10.2,0,0,0,3.06.94c.06,0,.17.13.14.19-.43.46-.79.87-1.61,1.86s-2.49,3.1-3.26,4.12c-.33.47-.5.78-.23,1.05a5.64,5.64,0,0,0,.66.52C104.88,24.52,104.68,24.78,104.6,24.79Z"/><path class="cls-9" d="M114,23.2C113,25,111,26.92,109,26.92a3.66,3.66,0,0,1-1.8-.5c-1.74-1-1.63-2.55-.71-4.11s2.72-3.5,4.74-3.66a3.83,3.83,0,0,1,2.18.48C115,20.1,114.92,21.67,114,23.2Zm-2-3.83c-1.27.49-3.09,2.65-4.13,4.46-.86,1.44-.75,2-.26,2.33a.93.93,0,0,0,.63.06c1.21-.36,3.39-2.89,4.48-4.78.86-1.49.47-1.86.13-2.06A1,1,0,0,0,112,19.37Z"/><path class="cls-10" d="M115,59.45l-2.16.9-.56-2.24c-1.44-3.6-3.08-4.25-4.36-4.42a8.2,8.2,0,0,0-8,3.9c-2,3.5.52,9,2.25,13.91.59,1.7,1.12,3.26,1.51,4.69a39.78,39.78,0,0,1,7.56-1.72c4.78-.77,8.89-.8,10.8-4.11,1.78-3.07.62-7.46-1.48-9.75C119.08,59,116.72,59,115,59.45Z"/><path class="cls-11" d="M104.38,29l-1,.41-.26-1c-.66-1.65-1.41-1.95-2-2a3.75,3.75,0,0,0-3.67,1.78c-.92,1.6.24,4.1,1,6.37.27.77.51,1.48.69,2.14a18.54,18.54,0,0,1,3.46-.79c2.19-.35,4.07-.36,4.94-1.88a4.1,4.1,0,0,0-.67-4.46A2.53,2.53,0,0,0,104.38,29Z"/><path class="cls-12" d="M114.15,108.65c.79.46,1.24.77,2,1.23s1.34.72,2.08,1.14a.68.68,0,0,1-.26.34c-.36-.16-.55-.23-.82-.33-.45-.14-.73.11-1.05.48s-1,1.24-2,2.39c-.81,1-1.59,1.94-1.82,2.28s-.26.48,0,.65a5,5,0,0,0,.63.51c0,.08-.21.31-.27.31a10.07,10.07,0,0,0-3.05-.94c-.06,0-.18-.13-.14-.19.43-.46.78-.87,1.61-1.86s2.48-3.09,3.25-4.12c.33-.47.51-.78.23-1.05a4.9,4.9,0,0,0-.66-.52S114.07,108.66,114.15,108.65Z"/><path class="cls-13" d="M104.72,110.24c1-1.81,3.08-3.72,5.09-3.72a3.66,3.66,0,0,1,1.8.5c1.73,1,1.62,2.55.7,4.12s-2.71,3.5-4.74,3.65a3.86,3.86,0,0,1-2.17-.48C103.73,113.35,103.83,111.77,104.72,110.24Zm2,3.82c1.26-.48,3.08-2.64,4.13-4.45.85-1.44.75-2,.25-2.33a1,1,0,0,0-.63-.06c-1.21.36-3.38,2.89-4.47,4.78-.87,1.49-.47,1.86-.13,2.06A1,1,0,0,0,106.72,114.06Z"/><path class="cls-14" d="M114.38,104.44l1-.41.25,1c.66,1.65,1.42,2,2,2a3.75,3.75,0,0,0,3.66-1.79c.93-1.6-.23-4.1-1-6.37-.27-.77-.51-1.48-.69-2.14a18.64,18.64,0,0,1-3.47.79c-2.18.35-4.06.36-4.94,1.88a4.1,4.1,0,0,0,.68,4.46A2.53,2.53,0,0,0,114.38,104.44Z"/></g></g></svg>