<svg xmlns="http://www.w3.org/2000/svg" viewBox="0 0 95.85 77.42"><defs><style>.cls-1{fill:#4d4d4d;}.cls-2{fill:#afafaf;}.cls-3{fill:gray;}.cls-4{fill:#777;}.cls-5{fill:#969696;}.cls-6{fill:#3f3f3f;}.cls-7{fill:#fff;}.cls-8{fill:#e2e2e2;}.cls-9{fill:#e32c33;}.cls-10{fill:#52b7c7;}.cls-11{fill:#fc611f;}.cls-12{fill:#2697aa;}.cls-13{fill:#e54a13;}</style></defs><g id="Capa_2" data-name="Capa 2"><g id="Layer_1" data-name="Layer 1"><path class="cls-1" d="M91.2,3A3.1,3.1,0,0,0,88,0H3.17A3.1,3.1,0,0,0,0,3V55.89H91.2Z"/><path class="cls-2" d="M3.17,65.82H88a3.1,3.1,0,0,0,3.17-3V55.89H0V62.8A3.1,3.1,0,0,0,3.17,65.82Z"/><rect class="cls-3" x="36.16" y="64.59" width="22.74" height="10.84"/><rect class="cls-4" x="38.88" y="64.59" width="22.74" height="10.84"/><rect class="cls-2" x="29.75" y="74.37" width="28.18" height="3.05"/><rect class="cls-5" x="38.88" y="74.37" width="28.18" height="3.05"/><path class="cls-6" d="M95.85,3a3.1,3.1,0,0,0-3.17-3H7.82A3.1,3.1,0,0,0,4.65,3V55.89h91.2Z"/><path class="cls-5" d="M7.82,65.82H92.68a3.1,3.1,0,0,0,3.17-3V55.89H4.65V62.8A3.1,3.1,0,0,0,7.82,65.82Z"/><rect class="cls-7" x="8.13" y="3.44" width="84.24" height="5.88"/><rect class="cls-7" x="8.13" y="8.68" width="84.24" height="42.79"/><path class="cls-7" d="M55.23,61.1a.9.9,0,0,1-.9.9H49.39a.9.9,0,0,1-.9-.9h0a.9.9,0,0,1,.9-.9h4.94a.9.9,0,0,1,.9.9Z"/><rect class="cls-8" x="16.5" y="17.42" width="23.91" height="25.68"/><rect class="cls-8" x="45.14" y="17.42" width="18.16" height="25.68"/><rect class="cls-8" x="67.23" y="17.42" width="18.16" height="25.68"/><rect class="cls-9" x="11.97" y="11.09" width="77.16" height="2.73"/><rect class="cls-2" x="16.5" y="45.69" width="23.91" height="2.73"/><rect class="cls-2" x="45.14" y="45.69" width="18" height="2.73"/><rect class="cls-2" x="67.31" y="45.69" width="18" height="2.73"/><rect class="cls-10" x="8.13" y="5.26" width="84.24" height="2.6"/><polygon class="cls-2" points="13.88 27.74 13.88 33.42 11.08 30.53 13.88 27.74"/><polygon class="cls-2" points="87.72 27.74 87.72 33.42 90.52 30.53 87.72 27.74"/><path class="cls-11" d="M35.1,24.27a9.61,9.61,0,0,0-4.46-1.88S30,24,28.58,24s-2.06-1.56-2.06-1.56a9.56,9.56,0,0,0-4.46,1.88c-1.69,1.09-4.45,5.38-4.45,5.38l2.79,2.79,2.72-3.06v10H34v-10l2.73,3.06,2.79-2.79S36.79,25.36,35.1,24.27Z"/><path class="cls-7" d="M32.49,26.58l-2.06,1.57a3.18,3.18,0,0,0-4.84,2.72,3.14,3.14,0,0,0,.89,2.19l-1.43,2.5,2.1-2a3.13,3.13,0,0,0,1.63.46,3.17,3.17,0,0,0,2.37-5.3Z"/><path class="cls-11" d="M29.36,28.92h-.95L27,32.56l1,.24.43-1.09.82,0,.42,1.13,1-.39Zm-.77,2.2L28.9,30l.24,1.08Z"/><path class="cls-10" d="M58.89,24.36a2.11,2.11,0,0,1-1.9-.65,6.25,6.25,0,0,1-1-2.38H52.75a6.09,6.09,0,0,1-1,2.38,2.36,2.36,0,0,1-2.22.62L46.1,38.67l4.84,1.15,3.28-11.68,3.27,11.68,4.84-1.15Z"/><path class="cls-12" d="M51.77,23.71a6.09,6.09,0,0,0,1-2.38H50.27l-.72,3A2.36,2.36,0,0,0,51.77,23.71Z"/><path class="cls-12" d="M58.89,24.36l-.73-3H56a6.25,6.25,0,0,0,1,2.38A2.11,2.11,0,0,0,58.89,24.36Z"/><path class="cls-11" d="M70.37,31.73s0-5.56,4.06-6.77a7.8,7.8,0,0,1,7.75,1.51c1.88,1.65,1.19,7,1.19,7S76.22,35.75,70.37,31.73Z"/><path class="cls-13" d="M70.37,31.73a13,13,0,0,0-2.16,3.17C67.7,36.81,72,39,75.77,38.32c4.4-.79,7.6-4.86,7.6-4.86S75.35,35.05,70.37,31.73Z"/><path class="cls-7" d="M79.2,28.59,78,29a2.73,2.73,0,0,0-2.29-1.18A2.59,2.59,0,0,0,73,30.26a2.28,2.28,0,0,0,.18.86l-.86.75,1.13-.24a2.79,2.79,0,0,0,2.25,1.1,2.6,2.6,0,0,0,2.7-2.47,2.2,2.2,0,0,0-.14-.73Z"/><path class="cls-11" d="M76.19,28.83l-.85-.15-1.6,2.53.7.32.62-1,.68.15L76,31.87l.92-.09Zm-1,1.31.32-.7.16.82Z"/></g></g></svg>