<svg xmlns="http://www.w3.org/2000/svg" viewBox="0 0 106.29 72.78"><defs><style>.cls-1{fill:#3f3f3f;}.cls-2{fill:#686868;}.cls-3{fill:#f76670;}.cls-4{fill:#4d4d4d;}.cls-5{fill:#e32c33;}.cls-6{fill:#4dc5ac;}.cls-7{fill:#5ed3b7;}.cls-8{fill:#afafaf;}.cls-9{fill:#fff;}.cls-10{fill:#189373;}.cls-11{fill:#26a587;}.cls-12{fill:#e2e2e2;}</style></defs><g id="Capa_2" data-name="Capa 2"><g id="Layer_1" data-name="Layer 1"><path class="cls-1" d="M56.47,64.67c0,4.48-2.5,8.11-5.58,8.11s-5.58-3.63-5.58-8.11,2.5-8.12,5.58-8.12S56.47,60.18,56.47,64.67Z"/><rect class="cls-1" x="46.43" y="56.55" width="4.45" height="16.24"/><path class="cls-2" d="M52,64.67c0,4.48-2.5,8.11-5.58,8.11s-5.57-3.63-5.57-8.11,2.49-8.12,5.57-8.12S52,60.18,52,64.67Z"/><path class="cls-3" d="M48.87,64.67c0,2-1.09,3.54-2.44,3.54S44,66.62,44,64.67s1.09-3.55,2.43-3.55S48.87,62.71,48.87,64.67Z"/><rect class="cls-1" x="2.96" y="53.77" width="68.74" height="4.3"/><rect class="cls-1" x="21.95" y="56.33" width="39.57" height="4.3"/><path class="cls-1" d="M72.6,64.67c0,4.48-2.5,8.11-5.58,8.11s-5.57-3.63-5.57-8.11,2.49-8.12,5.57-8.12S72.6,60.18,72.6,64.67Z"/><rect class="cls-1" x="62.57" y="56.55" width="4.45" height="16.24"/><path class="cls-4" d="M68.15,64.67c0,4.48-2.5,8.11-5.58,8.11S57,69.15,57,64.67s2.5-8.12,5.58-8.12S68.15,60.18,68.15,64.67Z"/><path class="cls-5" d="M65,64.67c0,2-1.09,3.54-2.44,3.54s-2.44-1.59-2.44-3.54,1.09-3.55,2.44-3.55S65,62.71,65,64.67Z"/><path class="cls-1" d="M24.74,64.67c0,4.48-2.5,8.11-5.58,8.11s-5.58-3.63-5.58-8.11,2.5-8.12,5.58-8.12S24.74,60.18,24.74,64.67Z"/><rect class="cls-1" x="14.71" y="56.55" width="4.45" height="16.24"/><path class="cls-4" d="M20.28,64.67c0,4.48-2.49,8.11-5.57,8.11s-5.58-3.63-5.58-8.11,2.5-8.12,5.58-8.12S20.28,60.18,20.28,64.67Z"/><path class="cls-5" d="M17.14,64.67c0,2-1.09,3.54-2.43,3.54s-2.44-1.59-2.44-3.54,1.09-3.55,2.44-3.55S17.14,62.71,17.14,64.67Z"/><path class="cls-1" d="M102,64.67c0,4.48-2.5,8.11-5.58,8.11s-5.57-3.63-5.57-8.11,2.49-8.12,5.57-8.12S102,60.18,102,64.67Z"/><rect class="cls-1" x="91.95" y="56.55" width="4.45" height="16.24"/><path class="cls-2" d="M97.53,64.67c0,4.48-2.5,8.11-5.58,8.11s-5.58-3.63-5.58-8.11,2.5-8.12,5.58-8.12S97.53,60.18,97.53,64.67Z"/><path class="cls-3" d="M94.39,64.67c0,2-1.09,3.54-2.44,3.54s-2.44-1.59-2.44-3.54S90.6,61.12,92,61.12,94.39,62.71,94.39,64.67Z"/><path class="cls-1" d="M46,63.4H24.66v2.53H46a1,1,0,0,0,1-1v-.59A1,1,0,0,0,46,63.4Z"/><path class="cls-1" d="M91.58,62.93h-22V66.4h22a1.15,1.15,0,0,0,1.14-1.14V64.07A1.15,1.15,0,0,0,91.58,62.93Z"/><polygon class="cls-6" points="43.55 0 25.33 0 25.33 55.11 87.31 55.11 87.31 7.65 42.73 12.81 43.55 0"/><polygon class="cls-7" points="43.55 0 42.73 12.81 87.31 7.65 87.31 0 43.55 0"/><path class="cls-5" d="M77.39,44.45H56.32v11H66c3.2,0,4.38,5.67,4.69,10.94h6.73Z"/><polygon class="cls-5" points="56.32 44.45 78.18 44.45 72.9 25.73 57.83 25.73 56.32 44.45"/><polygon class="cls-3" points="100.81 25.73 71.7 25.73 75.15 44.45 75.15 63.16 105.26 63.16 105.26 44.45 100.81 25.73"/><path class="cls-8" d="M77.62,44.16v3.16a2.45,2.45,0,0,0,2.44,2.45H101a2.45,2.45,0,0,0,2.44-2.45V44.16Z"/><rect class="cls-4" x="73.99" y="61.22" width="32.3" height="5.19" rx="0.88"/><path class="cls-9" d="M75.17,54.8H82a1.68,1.68,0,0,1,1.68,1.68V58.9a0,0,0,0,1,0,0H75.17a0,0,0,0,1,0,0V54.8A0,0,0,0,1,75.17,54.8Z"/><path class="cls-9" d="M105.26,54.8h-5.1a1.7,1.7,0,0,0-1.54,1.83V58.9h6.64Z"/><ellipse class="cls-5" cx="91.23" cy="52.23" rx="2.94" ry="1.53"/><rect class="cls-5" x="85.79" y="55.11" width="10.61" height="0.83"/><rect class="cls-5" x="85.79" y="56.53" width="10.61" height="0.83"/><rect class="cls-5" x="85.79" y="58.07" width="10.61" height="0.83"/><polygon class="cls-8" points="72.9 44.45 60.13 44.45 60.13 27.7 70.27 27.7 72.9 44.45"/><rect class="cls-10" x="1.78" y="45.73" width="47.65" height="1.7"/><rect class="cls-10" x="1.78" y="49" width="47.65" height="1.7"/><rect class="cls-10" x="1.78" y="52.07" width="47.65" height="1.7"/><path class="cls-1" d="M33.7,64.67h0a1.08,1.08,0,0,1-1.07-1.08V59a1.08,1.08,0,0,1,1.07-1.08h0A1.08,1.08,0,0,1,34.78,59v4.64A1.08,1.08,0,0,1,33.7,64.67Z"/><polygon class="cls-11" points="51.26 33.98 16.11 38.97 18.37 34.71 0 37.6 0 46.42 51.26 38.28 51.26 33.98"/><polygon class="cls-10" points="51.26 55.11 51.26 38.28 0 44.87 0 55.11 51.26 55.11"/><polygon class="cls-11" points="51.26 0 0 0 0 34.55 51.26 25.36 51.26 0"/><polygon class="cls-11" points="0 32.92 0 35.25 22.73 31.29 20.28 36.07 51.26 31.56 51.26 23.83 0 32.92"/><polygon class="cls-6" points="22.73 31.29 0 35.25 0 37.6 18.37 34.71 16.11 38.97 51.26 33.98 51.26 31.56 20.28 36.07 22.73 31.29"/><polygon class="cls-6" points="51.38 27.58 51.38 25.18 29.43 28.64 31.88 23.86 0 28.8 0 31.15 27.52 27.28 25.26 31.54 51.38 27.58"/><path class="cls-9" d="M3.23,21.15l.34-.09c.18,0,.3-.14.3-.35v-5l-.58.07v-.9l2.8-.5c1.95-.34,3.19.52,3.19,2.75,0,2.8-1.5,4.07-3.14,4.36L3.23,22Zm1.88-.49,1-.18C7.3,20.28,8,19.27,8,17.56c0-1.92-.89-2.3-2-2.11l-.91.16Z"/><path class="cls-9" d="M10,20.83V20l.34-.09a.35.35,0,0,0,.3-.35v-5l-.58.07V13.7l4.68-.82v1.78l-1,.25v-.42c0-.21,0-.33-.3-.28l-1.51.26V16.3l2.36-.41V17l-2.37.41v2l1.65-.28c.26-.05.29-.18.29-.4v-.53l1-.11V20Z"/><path class="cls-9" d="M15.62,19.84V19l.34-.09c.18-.06.3-.14.3-.35v-5l-.58.07v-.91l2.46-.43v.87l-.33.09a.35.35,0,0,0-.3.39v4.77l1.69-.29c.22,0,.24-.19.24-.39V17l1-.11V19Z"/><path class="cls-9" d="M21.75,12.6l-.58.07v-.91l2.47-.43v.86l-.33.09a.36.36,0,0,0-.3.4v4.93l.58-.07v.91l-2.48.43V18l.33-.1c.2-.05.3-.13.3-.4Z"/><path class="cls-9" d="M27.35,16.26h0l1.44-4.88-.63.06v-.91l2.36-.41V11l-.33.09c-.19,0-.25.15-.32.38L28,17.68l-1.33.23-2.07-5.8-.59.06v-.9l2.64-.47v.87l-.34.09c-.22.06-.37.18-.29.43Z"/><path class="cls-9" d="M31,17.15v-.86l.34-.09c.17-.06.29-.14.29-.36v-5l-.58.07V10l4.68-.82V11l-1.05.25v-.42c0-.21,0-.33-.29-.28l-1.51.26v1.83l2.36-.41v1.09l-2.36.41v2l1.65-.29c.26,0,.28-.17.28-.39v-.53l1-.11v1.9Z"/><path class="cls-9" d="M36.55,15.31l.34-.09c.17-.06.3-.14.3-.36v-5l-.58.07V9.05l2.79-.49c1.5-.26,2.45.09,2.45,1.54a2.45,2.45,0,0,1-1.23,2.1c.28.06.43.21.58.55l.74,1.55.58-.08v.91L40,15.57V14.7l.29-.08c.24-.07.29-.18.2-.38l-.48-1c-.14-.31-.29-.44-.65-.38l-.93.16V14.9l.67-.08v.91l-2.55.44Zm2.77-3.44a1.32,1.32,0,0,0,1.26-1.4c0-1-.53-1-1.4-.83l-.74.13V12Z"/><path class="cls-9" d="M44.38,12.08,42.65,8.93,42.17,9V8.08l2.49-.44V8.5l-.3.09a.28.28,0,0,0-.18.45l.87,1.71h0l1.12-2.42-.51,0V7.46l2.19-.39v.87l-.3.08c-.17.05-.25.18-.35.39l-1.61,3.46v1.77l.8-.11v.91L43.54,15v-.87l.55-.13a.31.31,0,0,0,.29-.35Z"/><polygon class="cls-9" points="99.45 27.7 74.39 27.7 75.14 31.55 99.77 29.04 99.45 27.7"/><polygon class="cls-12" points="77.63 44.22 103.4 44.22 100.43 31.79 75.71 34.42 77.63 44.22"/><polygon class="cls-9" points="75.14 31.55 75.71 34.42 100.43 31.79 99.77 29.04 75.14 31.55"/></g></g></svg>