<svg xmlns="http://www.w3.org/2000/svg" viewBox="0 0 91.98 72.32"><defs><style>.cls-1{fill:#7ec4c0;opacity:0.2;}.cls-2{fill:#d8d8d8;}.cls-3{fill:#211d1d;}.cls-4{fill:#fff;}.cls-5{fill:#d9dbdd;}.cls-6{fill:#babcbe;}.cls-7{fill:#282628;}.cls-8{fill:#f28a00;}.cls-9{fill:#e26100;}.cls-10{fill:#682a00;}</style></defs><g id="Capa_2" data-name="Capa 2"><g id="Layer_1" data-name="Layer 1"><path class="cls-1" d="M68.75,34.15h0A32.05,32.05,0,0,0,53,37.93c-8.69,5-8.64,13.23.1,18.27A32.27,32.27,0,0,0,68.89,60,32.06,32.06,0,0,0,84.64,56.2c8.68-5,8.63-13.22-.11-18.27a32.25,32.25,0,0,0-15.78-3.78Z"/><path class="cls-1" d="M25,46.49h0A32.05,32.05,0,0,0,9.27,50.27c-8.68,5-8.64,13.22.1,18.27a32.32,32.32,0,0,0,15.79,3.78,32.05,32.05,0,0,0,15.75-3.78c8.68-5.05,8.63-13.23-.1-18.27A32.29,32.29,0,0,0,25,46.49Z"/><path class="cls-2" d="M92,25.09A25.09,25.09,0,1,1,66.89,0,25.09,25.09,0,0,1,92,25.09Z"/><path class="cls-3" d="M76.06,2.32l.73.09a24.92,24.92,0,0,0-3.71-1.26c.52.32,1.07.66,1.65,1.05A6.52,6.52,0,0,0,76.06,2.32Z"/><path class="cls-4" d="M73,6.66c.7.51,1.41,1,2.15,1.6,1,.79,2.06,1.6,3.07,2.4a46,46,0,0,0,4.68-1.55c-.09-1.86-.11-2.38-.13-3a24.78,24.78,0,0,0-4.13-2.8c-1.17-.15-2-.18-3.68-.24a9.46,9.46,0,0,0-2,3.63Z"/><path class="cls-4" d="M87.37,12.32c.11-.29.19-.51.26-.73A24.57,24.57,0,0,0,83.79,7c.13.76.21,1.39.34,2.35q1.75,1.52,3.24,2.93Z"/><path class="cls-4" d="M56.49,5.14a13.5,13.5,0,0,1,3.75-3.87A24.72,24.72,0,0,0,48.39,8.69a10.5,10.5,0,0,1,1.26.43A30.09,30.09,0,0,1,56.49,5.14Z"/><polygon class="cls-4" points="69.69 0.5 69.68 0.5 69.69 0.51 69.69 0.5"/><path class="cls-4" d="M58.61,5c1.4.77,3,1.76,4.77,2.92A58.32,58.32,0,0,1,70.7,6.2,9.62,9.62,0,0,1,73,2.56c-1.24-.82-2.37-1.51-3.34-2h0a35.75,35.75,0,0,0-7.3.59A13.13,13.13,0,0,0,58.61,5Z"/><path class="cls-4" d="M68.88,21.91l7.31-2.83c.27-2.32.51-4.65.76-7-1.07-.86-2.17-1.71-3.28-2.56-.78-.59-1.55-1.16-2.29-1.7A65.21,65.21,0,0,0,64,9.77,62.88,62.88,0,0,0,62.39,17c.87.63,1.76,1.3,2.67,2C66.35,19.92,67.63,20.91,68.88,21.91Z"/><path class="cls-4" d="M68.15,32.28C70,33.9,71.78,35.48,73.36,37a59.74,59.74,0,0,0,7.26-2.78,46.23,46.23,0,0,0,1.8-7.94c-1.61-1.55-3.41-3.17-5.33-4.83-2.09.87-2.13.89-7.31,3-.76,4.17-1,5.08-1.63,7.87Z"/><path class="cls-3" d="M88.08,20.75a48.84,48.84,0,0,0-.8-6.79c-1.11-1.06-2.33-2.17-3.64-3.3A31.09,31.09,0,0,1,79,12.57c-.27,3.94-.35,4.82-.55,6.93,1.87,1.61,3.61,3.18,5.19,4.69a19.54,19.54,0,0,0,4.41-3.44Z"/><path class="cls-4" d="M90.66,33.77a31.24,31.24,0,0,0,1-7.66l0-.05a24.66,24.66,0,0,1-2.12,9.13c.35-.4.72-.85,1.18-1.42Z"/><path class="cls-4" d="M84.39,26.49a42.39,42.39,0,0,1-1.71,7.89A48,48,0,0,1,86,38.21a19.82,19.82,0,0,0,3.5-3,24.66,24.66,0,0,0,2.12-9.13,39.38,39.38,0,0,0-2.8-3.24,19.37,19.37,0,0,1-4.41,3.67Z"/><path class="cls-3" d="M66.42,34.12c-4,1.36-4.56,1.56-6.9,2.43a27.5,27.5,0,0,1-1.8,5.54c1.18,1,2.28,2,3.28,3,3.42-.32,4.28-.43,7-.81a23.66,23.66,0,0,0,3.41-5.58c-1.52-1.45-3.21-3-5-4.54Z"/><path class="cls-4" d="M67.86,45.66c-3.11.31-4,.36-7,.48-1.78,1.09-1.06,1.91-2.84,2.14,3.11,1.41,5.26,1.56,8.89,1.56l.4,0a18.13,18.13,0,0,0,3.06-1.28,34.76,34.76,0,0,0-2.49-2.88Z"/><path class="cls-4" d="M73.68,39.07A23.37,23.37,0,0,1,70,44.67a38.22,38.22,0,0,1,2.69,3.11,34.5,34.5,0,0,0,7-1.63,24,24,0,0,0,4.43-5.91,48,48,0,0,0-3.29-3.81,55.3,55.3,0,0,1-7.24,2.64Z"/><path class="cls-4" d="M70.69,49.52a24.52,24.52,0,0,0,4.2-1c-.77.12-1.64.24-2.86.39-.51.25-.94.46-1.34.63Z"/><path class="cls-4" d="M89.29,20.71c.9.95,1.64,1.81,2.27,2.6A24.59,24.59,0,0,0,88.49,13c-.07.27-.16.57-.28.94a43.87,43.87,0,0,1,1.08,6.76Z"/><path class="cls-3" d="M87.49,38.81c-.48.39-1,.81-1.74,1.34C85,41.41,84.48,42.26,84,43a24.81,24.81,0,0,0,3.53-4.18Z"/><path class="cls-4" d="M43,26.65c-.3-.12-.55-.2-.8-.28a24.37,24.37,0,0,0,2.55,9.74,20.1,20.1,0,0,1-.16-2.38A47.7,47.7,0,0,1,43,26.65Z"/><path class="cls-4" d="M46.57,18.33a28.73,28.73,0,0,1,1.48-7,10.31,10.31,0,0,0-1.35-.46,24.5,24.5,0,0,0-4.49,13,8.69,8.69,0,0,1,1,.35A19.38,19.38,0,0,1,46.57,18.33Z"/><path class="cls-4" d="M51.69,30.56c0-3.85,0-4.75.13-7.61-1.71-1.13-3.27-2.08-4.62-2.82a18.46,18.46,0,0,0-3.33,5.63,52.22,52.22,0,0,0,1.3,7.18c.88.49,1.9,1.11,3,1.85A14.61,14.61,0,0,1,51.69,30.56Z"/><path class="cls-3" d="M59.79,16.77a57.77,57.77,0,0,1,1.77-7.2c-1.81-1.21-3.46-2.22-4.9-3a31.19,31.19,0,0,0-6.85,4.08,30.65,30.65,0,0,0-1.6,7.11c1.41.78,3,1.77,4.79,2.94A45,45,0,0,1,59.79,16.77Z"/><path class="cls-4" d="M60.72,19.07a49.53,49.53,0,0,0-6.83,3.75c-.19,3.05-.23,4.11-.33,7.69.71.51,1.43,1,2.17,1.61,1.05.8,2.09,1.61,3.1,2.42,2.69-1.12,3.5-1.42,6.89-2.67.67-3.16.82-4.07,1.46-7.86q-1.86-1.49-3.8-3C62.47,20.36,61.59,19.7,60.72,19.07Z"/><path class="cls-3" d="M48,36.82c-1-.64-1.85-1.18-2.62-1.6a16.72,16.72,0,0,0,.2,2.48,25.43,25.43,0,0,0,3.72,4.84v-.25c-.63-2.37-.81-3.15-1.3-5.47Z"/><path class="cls-4" d="M52.6,32.54A13.68,13.68,0,0,0,49,36.41c.31,2.1.42,2.81.87,5.53l.88.65,1.25,1a20.44,20.44,0,0,1,4.08-1.74,29.75,29.75,0,0,0,1.41-5.55c-.94-.75-1.9-1.5-2.87-2.24-.68-.52-1.36-1-2-1.5Z"/><path class="cls-4" d="M56.31,43.14a30.07,30.07,0,0,0-4.17,1.3l-.2.34a42.94,42.94,0,0,0,5,3c1.5-.2.74-1.12,2.18-2.07-.86-.82-1.82-1.68-2.83-2.57Z"/><path class="cls-5" d="M66.86,50.18h0Zm0,0h0Zm0,0h0Zm0,0h0Zm0,0h0Zm0,0h0Zm0,0h0Zm0,0h0Zm0,0ZM92,25.05v0h0v0Zm0,0v0Zm0,0v0Zm0,0v0Zm0,0v0Zm0,0v0Zm0-.05v0Zm0,0v0Zm0-.05v0Zm0,0h0Zm0,0Zm0-.06h0Z"/><path class="cls-6" d="M74.89,48.5h0a24.52,24.52,0,0,1-4.2,1c.4-.17.83-.38,1.34-.63,1.22-.15,2.09-.27,2.86-.39Zm-8,1.34c-3.63,0-5.78-.15-8.89-1.56,1.78-.23,1.06-1.05,2.84-2.14,3-.12,3.91-.17,7-.48a34.76,34.76,0,0,1,2.49,2.88,18.13,18.13,0,0,1-3.06,1.28l-.4,0ZM57,47.78a42.94,42.94,0,0,1-5-3l.2-.34a30.07,30.07,0,0,1,4.17-1.3c1,.89,2,1.75,2.83,2.57-1.44.95-2.43.51-2.18,2.07Zm30.53-9h0A24.81,24.81,0,0,1,84,43c.52-.73,1.05-1.58,1.79-2.84.71-.53,1.26-.95,1.74-1.34Zm-14.76,9A38.22,38.22,0,0,0,70,44.67a23.37,23.37,0,0,0,3.64-5.6,55.3,55.3,0,0,0,7.24-2.64,48,48,0,0,1,3.29,3.81,24,24,0,0,1-4.43,5.91,34.5,34.5,0,0,1-7,1.63ZM86,38.21a48,48,0,0,0-3.3-3.83,42.39,42.39,0,0,0,1.71-7.89,19.37,19.37,0,0,0,4.41-3.67,39.38,39.38,0,0,1,2.8,3.24,24.66,24.66,0,0,1-2.12,9.13,19.82,19.82,0,0,1-3.5,3Zm5.58-14.9c-.63-.79-1.37-1.65-2.27-2.6A43.87,43.87,0,0,0,88.21,14c.12-.37.21-.67.28-.94a24.59,24.59,0,0,1,3.07,10.3Zm-4.19-11q-1.49-1.41-3.24-2.93c-.13-1-.21-1.59-.34-2.35a24.57,24.57,0,0,1,3.84,4.55c-.07.22-.15.44-.26.73ZM79.15,3.21c.11.18.21.37.32.56a24.75,24.75,0,0,1,3.25,2.3c0,.66,0,1.18.13,3l-1.09.41c.16.61.3,1.22.41,1.85.44-.2.88-.41,1.47-.71C85,11.79,86.17,12.9,87.28,14a48.84,48.84,0,0,1,.8,6.79,19.54,19.54,0,0,1-4.41,3.44c-.63-.6-1.29-1.21-2-1.83-.23.84-.5,1.67-.81,2.48l1.52,1.43a46.23,46.23,0,0,1-1.8,7.94A59.74,59.74,0,0,1,73.36,37l-1-1c-.7.51-1.43,1-2.18,1.44l1.27,1.19A23.66,23.66,0,0,1,68,44.24c-2.74.38-3.6.49-7,.81-1-.95-2.1-1.94-3.28-3,.2-.46.36-.84.5-1.2h-.74c-.37,0-.73,0-1.09,0-.09.29-.2.6-.32.95A20.44,20.44,0,0,0,52,43.57l-1.25-1-.88-.65c-.17-1-.29-1.73-.39-2.35q-.45-.15-.9-.33c.21.88.42,1.71.77,3v.25A24.71,24.71,0,0,1,45.81,38c-.2-.1-.39-.21-.58-.32A25,25,0,0,0,66.54,50.18h.35a25.1,25.1,0,0,0,23.36-15.9l-.77.91a24.66,24.66,0,0,0,2.12-9.13l0,.05a31.77,31.77,0,0,1-.52,5.54A25.32,25.32,0,0,0,92,25.09v0h0v0h0v0h0v0h0v0h0v-.07h0v-.09h0v0h0v-.05h0A25.05,25.05,0,0,0,79.15,3.21Z"/><path class="cls-5" d="M79.47,3.77a25.66,25.66,0,0,1,2.29,5.75l1.09-.41c-.09-1.86-.11-2.38-.13-3a24.75,24.75,0,0,0-3.25-2.3Z"/><path class="cls-5" d="M83.79,7c.13.76.21,1.39.34,2.35q1.75,1.52,3.24,2.93c.11-.29.19-.51.26-.73A24.57,24.57,0,0,0,83.79,7Z"/><path class="cls-5" d="M80.9,24.84A25.18,25.18,0,0,1,72.34,36l1,1a59.74,59.74,0,0,0,7.26-2.78,46.23,46.23,0,0,0,1.8-7.94L80.9,24.84Z"/><path class="cls-7" d="M83.64,10.66c-.59.3-1,.51-1.47.71a24.94,24.94,0,0,1,.4,4.44,25.24,25.24,0,0,1-.86,6.55c.67.62,1.33,1.23,2,1.83a19.54,19.54,0,0,0,4.41-3.44,48.84,48.84,0,0,0-.8-6.79c-1.11-1.06-2.33-2.17-3.64-3.3Z"/><path class="cls-5" d="M91.6,26.06a24.66,24.66,0,0,1-2.12,9.13l.77-.91a26.12,26.12,0,0,0,.87-2.63,31.77,31.77,0,0,0,.52-5.54l0-.05Z"/><path class="cls-5" d="M88.8,22.82a19.37,19.37,0,0,1-4.41,3.67,42.39,42.39,0,0,1-1.71,7.89A48,48,0,0,1,86,38.21a19.82,19.82,0,0,0,3.5-3,24.66,24.66,0,0,0,2.12-9.13,39.38,39.38,0,0,0-2.8-3.24Z"/><path class="cls-7" d="M70.16,37.47a25,25,0,0,1-11.94,3.42c-.14.36-.3.74-.5,1.2,1.18,1,2.28,2,3.28,3,3.42-.32,4.28-.43,7-.81a23.66,23.66,0,0,0,3.41-5.58l-1.27-1.19Z"/><path class="cls-5" d="M67.86,45.66c-3.11.31-4,.36-7,.48A17,17,0,0,0,58,48.28c3.11,1.41,5.26,1.56,8.89,1.56l.4,0a18.13,18.13,0,0,0,3.06-1.28,34.76,34.76,0,0,0-2.49-2.88Z"/><path class="cls-5" d="M80.92,36.43a55.3,55.3,0,0,1-7.24,2.64A23.37,23.37,0,0,1,70,44.67a38.22,38.22,0,0,1,2.69,3.11,34.5,34.5,0,0,0,7-1.63,24,24,0,0,0,4.43-5.91,48,48,0,0,0-3.29-3.81Z"/><path class="cls-5" d="M74.89,48.5c-.77.12-1.64.24-2.86.39-.51.25-.94.46-1.34.63a24.52,24.52,0,0,0,4.2-1Z"/><path class="cls-5" d="M88.49,13c-.07.27-.16.57-.28.94a43.87,43.87,0,0,1,1.08,6.76c.9.95,1.64,1.81,2.27,2.6A24.59,24.59,0,0,0,88.49,13Z"/><path class="cls-7" d="M87.49,38.81c-.48.39-1,.81-1.74,1.34C85,41.41,84.48,42.26,84,43a24.81,24.81,0,0,0,3.53-4.18Z"/><path class="cls-7" d="M45.81,38a24.71,24.71,0,0,0,3.53,4.53v-.25c-.35-1.32-.56-2.15-.77-3A22.85,22.85,0,0,1,45.81,38Z"/><path class="cls-5" d="M49.47,39.59c.1.62.22,1.35.39,2.35l.88.65,1.25,1a20.44,20.44,0,0,1,4.08-1.74c.12-.35.23-.66.32-.95a24.79,24.79,0,0,1-6.92-1.29Z"/><path class="cls-5" d="M56.31,43.14a30.07,30.07,0,0,0-4.17,1.3l-.2.34a42.94,42.94,0,0,0,5,3,6.87,6.87,0,0,0,2.18-2.07c-.86-.82-1.82-1.68-2.83-2.57Z"/><path class="cls-8" d="M50.18,39.9a23.9,23.9,0,0,1-1,7.07A25.06,25.06,0,0,1,25.09,65a23.84,23.84,0,0,1-4.75-.46,22.71,22.71,0,0,1-4.56-1.36,22.41,22.41,0,0,1-4.53-2.36,18.74,18.74,0,0,1-2.77-2.13,22.87,22.87,0,0,1-2.7-2.78l0,0a23.72,23.72,0,0,1-1.48-2A23.11,23.11,0,0,1,1,46.74l-.8-5.58L0,39.9A24.85,24.85,0,0,1,4.71,25.3,24.4,24.4,0,0,1,14,17.47a0,0,0,0,1,0,0,24.76,24.76,0,0,1,11.1-2.62,11.63,11.63,0,0,1,1.18,0,21.63,21.63,0,0,1,5.66,1A24.8,24.8,0,0,1,43.64,23,15.59,15.59,0,0,1,45,24.69,24.66,24.66,0,0,1,50.18,39.9Z"/><path class="cls-9" d="M45,24.69A15.59,15.59,0,0,0,43.64,23a25,25,0,0,0-5.15-4.31,24.8,24.8,0,0,1,2.87,11.62,24.22,24.22,0,0,1-1,7.07,25.07,25.07,0,0,1-24.07,18A23.84,23.84,0,0,1,11.52,55,22.28,22.28,0,0,1,7,53.59a22,22,0,0,1-4-2.05,22.85,22.85,0,0,0,1.31,2.31,23.72,23.72,0,0,0,1.48,2l0,0a22.87,22.87,0,0,0,2.7,2.78,18.74,18.74,0,0,0,2.77,2.13,22.41,22.41,0,0,0,4.53,2.36,22.71,22.71,0,0,0,4.56,1.36,23.84,23.84,0,0,0,4.75.46A25.06,25.06,0,0,0,49.15,47a23.9,23.9,0,0,0,1-7.07A24.66,24.66,0,0,0,45,24.69Z"/><path d="M.08,39.9a7.66,7.66,0,0,0,.11,1.26L0,39.9Z"/><path class="cls-10" d="M50.18,39.9a23.9,23.9,0,0,1-1,7.07c-.22.23-.41.46-.64.68-4.75,4.76-13.69,7.72-23.34,7.72A41.37,41.37,0,0,1,9,52.26a16.78,16.78,0,0,1-2-.91c-.23-.12-.46-.23-.65-.35A18.62,18.62,0,0,1,1,46.74l-.8-5.58C.69,44.08,3,46.86,6.77,49a3.32,3.32,0,0,0,.49.31c.46.26,1,.49,1.45.72a37.91,37.91,0,0,0,16.46,3.42c9.16,0,17.6-2.74,22-7.18a8.83,8.83,0,0,0,3-6.39Z"/><path class="cls-10" d="M8.63,44.84c.68-15.89,10.83-28.58,23.3-29a21.63,21.63,0,0,0-5.66-1C15.82,18.23,7.83,29.64,6.81,43.55a22,22,0,0,0-.12,2.32,5.36,5.36,0,0,0,0,.8A22.54,22.54,0,0,0,6.77,49,15,15,0,0,0,7,51.35a19.09,19.09,0,0,0,.45,3,15.57,15.57,0,0,0,.5,2.25,19.59,19.59,0,0,0,.57,2,18.74,18.74,0,0,0,2.77,2.13,18.93,18.93,0,0,1-.94-2.62,16.43,16.43,0,0,1-.73-2.82A21.64,21.64,0,0,1,9,52.26c-.11-.73-.22-1.49-.26-2.21a28.4,28.4,0,0,1-.16-3.19v-.19A14,14,0,0,1,8.63,44.84Z"/><path class="cls-10" d="M43.64,23a28.56,28.56,0,0,0-11.48,4.45,54.75,54.75,0,0,0-8.67,8.32c-4.37,4.8-8.47,9.32-13.15,9.32A11.24,11.24,0,0,1,9.05,45a2,2,0,0,1-.42-.19,5.46,5.46,0,0,1-1.82-1.29,9.33,9.33,0,0,1-2.66-5C2.85,32.75,5.4,25.8,11,20a19.12,19.12,0,0,1,3-2.51A24.4,24.4,0,0,0,4.71,25.3C2.21,29.9,1.33,34.69,2.28,39a11.1,11.1,0,0,0,4.41,6.88,8.52,8.52,0,0,0,1.83,1h0a9.83,9.83,0,0,0,1.79.15c5.51,0,9.92-4.83,14.56-10a55.09,55.09,0,0,1,8.36-8A27.72,27.72,0,0,1,45,24.69,15.59,15.59,0,0,0,43.64,23Z"/><path class="cls-10" d="M5.74,55.87l0,0a1.83,1.83,0,0,1,.61.12,10.48,10.48,0,0,1,1.52.61,13.87,13.87,0,0,1,2.4,1.56A47.35,47.35,0,0,1,14,61.49c.57.57,1.18,1.14,1.79,1.68a22.71,22.71,0,0,0,4.56,1.36,46.5,46.5,0,0,1-5-4.37,30.48,30.48,0,0,0-5.74-4.79,9.06,9.06,0,0,0-2.17-1,2.17,2.17,0,0,0-.49-.19,8.63,8.63,0,0,0-2.66-.34Z"/></g></g></svg>