<svg xmlns="http://www.w3.org/2000/svg" xmlns:xlink="http://www.w3.org/1999/xlink" viewBox="0 0 37.05 84.4"><defs><style>.cls-1{fill:#fff;}.cls-2{isolation:isolate;}.cls-3{fill:#b2b9bb;}.cls-4{fill:#e9eced;}.cls-5{fill:#ced3d3;}.cls-6{clip-path:url(#clip-path);}.cls-7{fill:#545356;}.cls-10,.cls-8{fill:#a39f93;}.cls-29,.cls-8{opacity:0.1;}.cls-9{fill:#3a9fc6;}.cls-11{fill:#755d32;}.cls-12{fill:#fcc24c;}.cls-13{fill:#b78020;opacity:0.4;mix-blend-mode:multiply;}.cls-14{fill:#353433;}.cls-15{fill:#bababa;}.cls-16{fill:#ddd;}.cls-17{fill:#334547;}.cls-18{fill:#af1c1c;}.cls-19{fill:#e8e8e8;}.cls-20{fill:#e4e4e3;}.cls-21{fill:#cbcfd0;}.cls-22{fill:#424144;}.cls-23{fill:#212526;}.cls-24{fill:#79e533;}.cls-25{fill:#eaeaea;}.cls-26{fill:#d6dcdd;}.cls-27{fill:#eaedee;}.cls-28{fill:#212121;}.cls-29,.cls-30{fill:#d0d6d6;}.cls-30{opacity:0.2;mix-blend-mode:screen;}</style><clipPath id="clip-path"><polygon class="cls-1" points="4.25 24.28 4.25 78.01 35.91 59.73 35.91 6 4.25 24.28"/></clipPath></defs><g class="cls-2"><g id="Capa_2" data-name="Capa 2"><g id="_0" data-name="0"><g id="_5" data-name="5"><path class="cls-3" d="M3.27,81.22V24.36L.39,22.68V79.54a3.12,3.12,0,0,0,1.31,2.88L4.58,84.1A3.13,3.13,0,0,1,3.27,81.22Z"/><path class="cls-4" d="M32.85.3a3.17,3.17,0,0,0-3.19.32L4.87,14.93A9.86,9.86,0,0,0,.39,22.68l2.89,1.68A9.89,9.89,0,0,1,7.76,16.6L32.54,2.29A3.19,3.19,0,0,1,35.74,2Z"/><path class="cls-5" d="M32.54,2.29C35,.86,37,2,37.05,4.86V61.72a9.87,9.87,0,0,1-4.48,7.76L7.77,83.79c-2.48,1.43-4.5.28-4.5-2.57V24.36A9.89,9.89,0,0,1,7.76,16.6Z"/><polygon class="cls-1" points="4.25 24.28 4.25 78.01 35.91 59.73 35.91 6 4.25 24.28"/><g class="cls-6"><polygon class="cls-7" points="36.56 31.31 3.71 50.28 3.71 34.38 36.56 15.41 36.56 31.31"/><polygon class="cls-8" points="36.56 61.57 3.71 80.54 3.71 60.2 19.7 50.97 36.56 41.23 36.56 61.57"/><path class="cls-9" d="M26.68,63.09,13.23,70.86c-1.65,1-3,.39-3-1.26a6.16,6.16,0,0,1,3-4.7l13.45-7.77c1.65-1,3-.39,3,1.26A6.17,6.17,0,0,1,26.68,63.09Z"/><path class="cls-9" d="M24,41.24a1.53,1.53,0,0,0-.94.24,3.19,3.19,0,0,0-.89.79c-.75.94-.93,2.09-.42,2.56L23.1,46l1.31-2.71C24.9,42.29,24.75,41.35,24,41.24Zm-.9,3.09c-.67.38-1.22.14-1.22-.54a2.53,2.53,0,0,1,1.21-1.94c.67-.39,1.21-.14,1.21.54A2.49,2.49,0,0,1,23.13,44.33Z"/><path class="cls-9" d="M7,52.82v-.13a.08.08,0,0,1,0-.08l.18-.1s0,0,0,0v.1c0,.23.12.28.35.15l.34-.2A.62.62,0,0,0,8.33,52v-.13c0-.18-.16-.22-.47-.1l-.39.15a.54.54,0,0,1-.33,0c-.09,0-.13-.14-.13-.29v-.19A1,1,0,0,1,7.16,51a1.08,1.08,0,0,1,.42-.4L8,50.31a.52.52,0,0,1,.42-.09c.11,0,.16.15.16.33v.1a.11.11,0,0,1-.05.09l-.18.1s0,0,0,0v-.07c0-.23-.12-.29-.35-.15l-.33.19a.62.62,0,0,0-.34.57v.15c0,.14.08.18.26.13l.25-.1c.1,0,.19-.07.29-.09a.85.85,0,0,1,.25,0,.21.21,0,0,1,.19.07.38.38,0,0,1,.08.26v.17a1,1,0,0,1-.16.52A1.13,1.13,0,0,1,8,52.8l-.45.26a.51.51,0,0,1-.42.09Q7,53.09,7,52.82Z"/><path class="cls-9" d="M10.52,51.37l-.83.47a.49.49,0,0,1-.42.1c-.1,0-.15-.16-.15-.34v-.83a1,1,0,0,1,.15-.52,1.13,1.13,0,0,1,.42-.39l.33-.19a.52.52,0,0,1,.42-.09q.15.06.15.33v.5a.11.11,0,0,1-.05.09l-1.1.64a.05.05,0,0,0,0,0v.24c0,.22.11.28.32.15l.8-.46s.05,0,.05,0v.14A.11.11,0,0,1,10.52,51.37Zm-1.08-.44.84-.49a.06.06,0,0,0,0-.06v-.3c0-.22-.1-.27-.32-.14l-.27.15a.59.59,0,0,0-.32.52v.3S9.41,50.94,9.44,50.93Z"/><path class="cls-9" d="M11.82,50.61l-.23.14c-.18.1-.31.13-.41.08s-.15-.15-.15-.34v-.83a1,1,0,0,1,.15-.51,1.1,1.1,0,0,1,.41-.39l.23-.13c.2-.12.34-.13.4,0s0-.91,0-.91a.08.08,0,0,1,0-.08l.18-.1s0,0,0,0v2.63a.1.1,0,0,1,0,.08l-.18.1s0,0,0,0v-.15A.94.94,0,0,1,11.82,50.61Zm.42-.84V49c0-.12,0-.19-.1-.21s-.15,0-.26.06l-.24.13a.59.59,0,0,0-.33.53v.81q0,.33.33.15l.24-.14a.69.69,0,0,0,.26-.25A.5.5,0,0,0,12.24,49.77Z"/><path class="cls-9" d="M13.79,49.47l-.2.12a.52.52,0,0,1-.42.09q-.15-.06-.15-.33v-.84a1,1,0,0,1,.15-.51,1.13,1.13,0,0,1,.42-.39l.85-.49s.05,0,.05,0V49a.1.1,0,0,1-.05.08l-.18.11s0,0,0,0V49A.89.89,0,0,1,13.79,49.47Zm.42-.84V47.54s0,0,0,0l-.55.32a.58.58,0,0,0-.32.52v.81c0,.23.11.28.32.15l.22-.12a.73.73,0,0,0,.27-.25A.55.55,0,0,0,14.21,48.63Z"/><path class="cls-9" d="M15.26,48.63l-.18.1s-.05,0-.05,0V46.83a.1.1,0,0,1,.05-.08l.18-.11s.05,0,.05,0v.15a.91.91,0,0,1,.41-.44l.22-.13a.52.52,0,0,1,.42-.09c.09.05.14.16.14.34v1.36a.1.1,0,0,1-.05.08l-.18.1s-.05,0-.05,0V46.68q0-.34-.33-.15l-.22.12a.78.78,0,0,0-.26.25.55.55,0,0,0-.1.32v1.32A.11.11,0,0,1,15.26,48.63Z"/><path class="cls-10" d="M7.66,54.51l.14-.08a.35.35,0,0,0,.21-.3V54q0-.18-.21-.06l-.17.1a.31.31,0,0,0-.2.29v.07a.07.07,0,0,1,0,.05l-.11.06s0-.08,0-.08a.51.51,0,0,1,.09-.28.87.87,0,0,1,.27-.23l.21-.13a.44.44,0,0,1,.26-.07c.07,0,.1.08.1.17V54a.51.51,0,0,1-.2.36c.13,0,.2,0,.2.12v.13a.46.46,0,0,1-.1.29.73.73,0,0,1-.26.23l-.21.12a.34.34,0,0,1-.27.07c-.06,0-.09-.07-.09-.17V55.1a.05.05,0,0,1,0-.05L7.39,55s0,.1,0,.1.06.14.2.06L7.8,55a.35.35,0,0,0,.21-.3v-.12c0-.12-.07-.15-.21-.07l-.14.09s0-.08,0-.08A.05.05,0,0,1,7.66,54.51Z"/><path class="cls-10" d="M9.26,54.64l-.11.06s0-1.33,0-1.33a.05.05,0,0,1,0,0l.11-.07s0,.09,0,.09a.68.68,0,0,1,.25-.26L9.7,53a.38.38,0,0,1,.26-.07q.09,0,.09.18v.45a.47.47,0,0,1-.09.28.73.73,0,0,1-.26.23l-.15.09q-.18.11-.24,0s0,.4,0,.4S9.28,54.62,9.26,54.64Zm.26-.6L9.67,54a.35.35,0,0,0,.2-.3v-.44c0-.12-.07-.15-.2-.07l-.15.09a.5.5,0,0,0-.17.15.34.34,0,0,0,0,.17V54c0,.06,0,.1,0,.11A.22.22,0,0,0,9.52,54Z"/><path class="cls-10" d="M10.52,53.6l-.11.07s0-1.44,0-1.44,0,0,0,0l.11-.07s0,1.43,0,1.43A.05.05,0,0,1,10.52,53.6Z"/><path class="cls-10" d="M11.36,53.12l-.13.07a.38.38,0,0,1-.26.07.16.16,0,0,1-.1-.17v-.46a.53.53,0,0,1,.1-.28.87.87,0,0,1,.26-.24l.53-.3a9,9,0,0,1,0,1s0,0,0,0l-.11.06s0-.09,0-.09A.65.65,0,0,1,11.36,53.12Zm.26-.48v-.59a2.55,2.55,0,0,0-.37.19.35.35,0,0,0-.2.3V53c0,.12.07.14.2.06l.14-.08a.61.61,0,0,0,.17-.14A.32.32,0,0,0,11.62,52.64Z"/><path class="cls-10" d="M12.86,52.15v.08s0,0,0,0l-.35.21a.45.45,0,0,1-.27.07q-.09,0-.09-.18v-.45a.49.49,0,0,1,.09-.28,1.05,1.05,0,0,1,.27-.24l.35-.2s0,.09,0,.09l0,0-.33.2a.32.32,0,0,0-.2.3v.43c0,.13.06.15.2.07l.33-.19S12.86,52.13,12.86,52.15Z"/><path class="cls-10" d="M14,51.62l-.52.3a.44.44,0,0,1-.26.07c-.07,0-.1-.08-.1-.18v-.45a.48.48,0,0,1,.1-.29.73.73,0,0,1,.26-.23l.21-.12a.42.42,0,0,1,.26-.07q.09,0,.09.18v.27s0,0,0,0l-.69.4a.53.53,0,0,0,0,.16c0,.12.06.14.2.06l.5-.29s0,.09,0,.09S14,51.6,14,51.62Zm-.68-.19.53-.3a.83.83,0,0,0,0-.2c0-.12-.07-.14-.2-.06l-.17.09a.34.34,0,0,0-.2.3v.17Z"/><path class="cls-10" d="M14.72,51.18l-.43.25s0-.09,0-.09,0,0,0,0l.41-.24c.13-.08.19-.15.19-.23s0-.15-.13-.13l-.28.06a.27.27,0,0,1-.18,0s-.05-.06-.05-.12a.53.53,0,0,1,.32-.45L15,50S15,50,15,50s0,0,0,.05l-.36.21a.4.4,0,0,0-.14.11.16.16,0,0,0,0,.1c0,.09,0,.11.14.09l.28-.06a.25.25,0,0,1,.18,0,.25.25,0,0,1,0,.17C15.07,50.89,15,51,14.72,51.18Z"/><path class="cls-10" d="M27.22,42.37l-.12.07s0,0,0,0v-.29l-.79.46s-.06,0-.06,0v-.06a.15.15,0,0,1,0-.09L26.92,41a.18.18,0,0,1,.09-.1l.19-.11s.06,0,.06,0v1.07l.21-.12s0,0,0,0v.09a.07.07,0,0,1,0,.06l-.21.12v.28S27.24,42.35,27.22,42.37ZM27.06,42V41l-.65,1.35Z"/><path class="cls-10" d="M28.47,41.64l-.28.17a.46.46,0,0,1-.31.08c-.08,0-.11-.09-.11-.2v-.86a.55.55,0,0,1,.11-.34,1,1,0,0,1,.31-.27l.28-.17a.47.47,0,0,1,.31-.08c.08,0,.11.09.11.21V41a.54.54,0,0,1-.11.33A.82.82,0,0,1,28.47,41.64Zm-.26,0,.24-.14a.4.4,0,0,0,.24-.35V40.3c0-.14-.08-.17-.24-.08l-.24.14a.39.39,0,0,0-.23.35v.85C28,41.7,28.05,41.73,28.21,41.64Z"/><path class="cls-10" d="M30,40.79l-.29.16a.4.4,0,0,1-.3.08c-.08,0-.12-.09-.12-.2V40a.52.52,0,0,1,.12-.33.81.81,0,0,1,.3-.28l.29-.17a.46.46,0,0,1,.31-.08c.07,0,.11.09.11.21v.86a.62.62,0,0,1-.11.33A1.05,1.05,0,0,1,30,40.79Zm-.26,0,.23-.14a.4.4,0,0,0,.24-.35v-.85c0-.14-.08-.17-.24-.07l-.23.13a.4.4,0,0,0-.24.36v.84C29.46,40.84,29.54,40.87,29.7,40.78Z"/><path class="cls-10" d="M30.93,40.23l-.13.07s0,0,0,0V39.1a.05.05,0,0,1,0-.06l.13-.07s0,0,0,0v.09a.87.87,0,0,1,.32-.31l.11-.06c.16-.1.28-.11.34,0a.69.69,0,0,1,.15-.21.65.65,0,0,1,.21-.16l.1-.06a.39.39,0,0,1,.3-.08c.07,0,.11.09.11.21v.86s0,0,0,.06l-.13.07s0,0,0,0v-.86c0-.14-.08-.16-.24-.07l-.1,0a.55.55,0,0,0-.19.18.35.35,0,0,0-.07.21v.84a.07.07,0,0,1,0,0l-.13.08s0,0,0,0V39c0-.14-.08-.17-.24-.07l-.11.06a.67.67,0,0,0-.2.17.44.44,0,0,0-.07.21v.84A.09.09,0,0,1,30.93,40.23Z"/><path class="cls-10" d="M33.17,38.6v.3a.05.05,0,0,1,0,.05L33,39s0,0,0,0v-.3a.07.07,0,0,1,0-.06l.14-.08S33.17,38.58,33.17,38.6Z"/><path class="cls-10" d="M24.32,53.26l-.28.16a.4.4,0,0,1-.3.09c-.07,0-.11-.06-.11-.16v-.73a.53.53,0,0,1,.11-.3.93.93,0,0,1,.3-.25l.28-.17a.55.55,0,0,1,.31-.09.15.15,0,0,1,.11.17v.73a.48.48,0,0,1-.11.29A1,1,0,0,1,24.32,53.26Zm-.25,0,.23-.13a.37.37,0,0,0,.23-.32V52.1c0-.12-.07-.14-.23-.05l-.23.14c-.16.09-.24.19-.24.31v.72C23.83,53.35,23.91,53.36,24.07,53.27Z"/><path class="cls-10" d="M25.3,52.41v.26s0,0,0,0l-.14.08s0-.26,0-.26a.05.05,0,0,1,0,0l.14-.08S25.3,52.39,25.3,52.41Z"/><path class="cls-10" d="M25.62,52.48v-.19a.51.51,0,0,1,.16-.32l.54-.63a.52.52,0,0,0,.14-.28V51c0-.12-.08-.13-.24,0l-.17.1c-.16.09-.24.19-.24.31v.09a.07.07,0,0,1,0,.06l-.12.07s0-.1,0-.1a.5.5,0,0,1,.11-.29,1,1,0,0,1,.3-.26l.23-.13a.54.54,0,0,1,.3-.09c.07,0,.11.07.11.16V51a.64.64,0,0,1-.17.37l-.55.64a.29.29,0,0,0-.1.19v.1l.79-.46s0,0,0,0v.08s0,0,0,0l-1,.56S25.62,52.5,25.62,52.48Z"/><path class="cls-10" d="M27.6,50.63l-.21.12a.38.38,0,0,0-.16.14s0,.08-.07.09l-.13.08s0,0,0,0v-.66s0,0,0,0L28,49.8s0,0,0,0v.08A.07.07,0,0,1,28,50l-.76.44v.45a.48.48,0,0,1,.24-.25l.2-.11a.49.49,0,0,1,.3-.1c.07,0,.1.07.1.17v.25a.48.48,0,0,1-.11.29.86.86,0,0,1-.3.26l-.23.13a.5.5,0,0,1-.31.1c-.07,0-.11-.07-.11-.17v-.06a.07.07,0,0,1,0-.06l.13-.07s0,0,0,0v.06c0,.13.07.14.23.05l.18-.1c.16-.1.24-.2.24-.33v-.23c0-.07,0-.1-.06-.11A.27.27,0,0,0,27.6,50.63Z"/><path class="cls-10" d="M29,50.78l-.1,0s0,0,0,0v-.18l-.07,0a.54.54,0,0,1-.3.09c-.08,0-.11-.07-.11-.17v-.06s0,0,0,0l.13-.07c0,.18.12.2.29.1l.18-.1c.16-.1.25-.21.25-.34V50c0-.07,0-.1-.08-.1A.55.55,0,0,0,29,50l-.15.08a.67.67,0,0,1-.32.11c-.08,0-.12-.06-.12-.17v-.12a.46.46,0,0,1,.12-.29.86.86,0,0,1,.3-.26l.07,0v-.18a.05.05,0,0,1,0,0L29,49s0,0,0,0v.18a.54.54,0,0,1,.31-.1.15.15,0,0,1,.11.17v.05a.07.07,0,0,1,0,.06l-.13.07s0,0,0,0-.09-.18-.25-.09l-.17.1c-.17.1-.25.21-.25.34v.1c0,.07,0,.1.07.09a.59.59,0,0,0,.22-.08l.18-.1a.65.65,0,0,1,.3-.1c.07,0,.11.06.11.17V50a.46.46,0,0,1-.11.29,1,1,0,0,1-.3.26s0,.18,0,.18S29,50.76,29,50.78Z"/><path class="cls-10" d="M29.92,50l-.11.06s0,0,0,0,.14-.36.32-.84l.31-.81a.13.13,0,0,1,.06-.07l.11-.06s0,0,0,0L30,50A.13.13,0,0,1,29.92,50Z"/><path class="cls-10" d="M31.11,49.34l-.13.07s0,0,0,0V48s0,0,0,0l.13-.07s0,0,0,0v1.42A.05.05,0,0,1,31.11,49.34Zm.65-1.45.14-.08s-.39.74-.39.74.45.26.45.26-.16.13-.16.13a.09.09,0,0,1-.08,0l-.43-.25c0-.05.4-.75.4-.75A.12.12,0,0,1,31.76,47.89Z"/><path class="cls-10" d="M32.36,48.62l-.13.07s0,0,0,0v-1s0,0,0-.05l.13-.07s0,0,0,0v.09a.75.75,0,0,1,.31-.3l.1-.05c.16-.1.28-.12.34-.06a.77.77,0,0,1,.14-.19,1.37,1.37,0,0,1,.21-.15l.1-.06a.5.5,0,0,1,.29-.09c.08,0,.11.07.11.17v.73a.05.05,0,0,1,0,0l-.12.08s0,0,0,0V47c0-.12-.08-.14-.24,0l-.09,0a.56.56,0,0,0-.2.17.34.34,0,0,0-.07.18v.71a.07.07,0,0,1,0,.06l-.12.07s0,0,0,0v-.73c0-.12-.08-.13-.24,0l-.1.06a.67.67,0,0,0-.2.16.32.32,0,0,0-.06.18v.72A.07.07,0,0,1,32.36,48.62Z"/><path class="cls-9" d="M9.72,60.1c0-.56-.4-.79-.93-.6v-.29L6.26,60.68v3.93l-.46.26v.76l3.45-2v-.75l-.46.27v-1.4A2.35,2.35,0,0,0,9.72,60.1Zm-.93-.39c.42-.14.73,0,.73.5a1.94,1.94,0,0,1-.73,1.34Zm-.43,1.11-1.67,1v-.95l1.67-1Z"/><path class="cls-9" d="M12.41,58.47l-.36.21a.6.6,0,0,0-.26.23.45.45,0,0,1-.13.14l-.22.13s-.07,0-.07,0v-1s0-.05.07-.08L13,57.2c.05,0,.07,0,.07,0v.13s0,.05-.07.08l-1.31.76v.66a.91.91,0,0,1,.41-.39l.35-.2a1.19,1.19,0,0,1,.51-.18c.12,0,.18.09.18.23v.38a.74.74,0,0,1-.19.45,2.07,2.07,0,0,1-.52.42l-.4.23a1,1,0,0,1-.52.18.2.2,0,0,1-.19-.23v-.1s0-.06.07-.08l.22-.13s.06,0,.06,0v.09c0,.18.14.2.4,0l.32-.18c.27-.15.41-.32.41-.51v-.34c0-.1,0-.15-.11-.16A.6.6,0,0,0,12.41,58.47Z"/><path class="cls-9" d="M14.92,58.12l-.49.28a.94.94,0,0,1-.51.18c-.13,0-.19-.09-.19-.23V57.26a.72.72,0,0,1,.19-.45,2,2,0,0,1,.51-.42l.49-.28a1,1,0,0,1,.51-.17c.13,0,.19.08.19.23v1.08a.68.68,0,0,1-.19.45A1.66,1.66,0,0,1,14.92,58.12Zm-.44.06.39-.23c.27-.16.41-.33.41-.51V56.38c0-.19-.14-.2-.41,0l-.39.22c-.27.16-.4.33-.4.51v1.07C14.08,58.32,14.21,58.33,14.48,58.18Z"/><path class="cls-9" d="M16.71,55.07l.17-.1c.36-.21.54-.19.54,0v.22c0,.24-.18.47-.54.67l-.17.1c-.36.21-.54.19-.54,0v-.23Q16.17,55.39,16.71,55.07Zm.13.07-.09,0a.94.94,0,0,0-.25.19.38.38,0,0,0-.07.21v.21c0,.08,0,.12.07.13a.59.59,0,0,0,.25-.1l.09,0a.73.73,0,0,0,.24-.19.31.31,0,0,0,.07-.21v-.21c0-.07,0-.12-.07-.12S17,55.07,16.84,55.14Zm.25,1.73L17,57c-.05,0-.06,0,0,0l.62-1.32.63-1.31a.18.18,0,0,1,.09-.1l.13-.08c.06,0,.07,0,.05,0l-1.24,2.63A.24.24,0,0,1,17.09,56.87Zm1.38-1.73.16-.1c.36-.21.54-.19.54.05v.21c0,.25-.18.47-.54.68l-.16.09c-.36.21-.54.19-.54,0v-.22C17.93,55.57,18.11,55.35,18.47,55.14Zm.13.07-.09,0a.8.8,0,0,0-.25.19.31.31,0,0,0-.07.21v.21c0,.08,0,.12.07.13a.64.64,0,0,0,.25-.1l.09,0a.94.94,0,0,0,.25-.19.38.38,0,0,0,.07-.21v-.2c0-.09,0-.13-.07-.14A.59.59,0,0,0,18.6,55.21Z"/><path class="cls-10" d="M11.27,61.27v-.09s0,0,0-.07l.44-.39.1-.08.15-.09s.06,0,.06,0v1.3s0,0-.06.06l-.16.1s-.06,0-.06,0V60.84l-.44.41C11.29,61.29,11.27,61.29,11.27,61.27Z"/><path class="cls-10" d="M14,59.66l.33-.19s.06,0,.06,0v.08s0,0-.06.06l-.33.19a.05.05,0,0,0,0,0v.89s0,0-.06.06l-.16.1s0,0,0,0V60a1.56,1.56,0,0,0-.26.13s-.05,0-.05,0V60s0,0,.05-.06l.22-.12s0,0,0,0v-.07a.49.49,0,0,1,.13-.31,1.39,1.39,0,0,1,.38-.3l.13-.07s0,0,0,0v.08s0,0,0,.06l-.1.06a.63.63,0,0,0-.21.16.28.28,0,0,0-.06.18v.07S14,59.67,14,59.66Z"/><path class="cls-10" d="M15,60.19l-.17.1s-.05,0-.05,0v-1s0,0,.05-.05l.17-.1s0,0,0,0v.08a1.2,1.2,0,0,1,.16-.17l.24-.18.15-.08s.05,0,.05,0v.08a2.24,2.24,0,0,1-.25.17,1,1,0,0,0-.26.21.32.32,0,0,0-.09.2v.7S15,60.17,15,60.19Z"/><path class="cls-10" d="M17.28,58.86l-.8.46a.87.87,0,0,1-.4.15c-.1,0-.15,0-.15-.14v-.45a.51.51,0,0,1,.15-.32,1.68,1.68,0,0,1,.4-.31l.32-.18a1.12,1.12,0,0,1,.4-.16.13.13,0,0,1,.15.15v.27s0,0-.05.06L16.24,59l0,0v.13c0,.12.1.12.31,0l.77-.44s0,0,0,0v.08S17.31,58.84,17.28,58.86Zm-1,0,.81-.47a.05.05,0,0,0,0,0v-.16c0-.12-.1-.12-.31,0l-.26.15c-.21.12-.31.24-.31.36v.16Z"/><path class="cls-10" d="M19.12,57.8l-.79.46a.9.9,0,0,1-.41.15c-.1,0-.15,0-.15-.14v-.46a.49.49,0,0,1,.15-.31,1.77,1.77,0,0,1,.41-.32l.31-.18a.94.94,0,0,1,.41-.15.12.12,0,0,1,.14.14v.27s0,0-.05.06l-1.06.62s0,0,0,0v.13c0,.12.11.12.32,0l.76-.44s.06,0,.06,0v.07S19.16,57.78,19.12,57.8Zm-1,0,.81-.47s0,0,0,0v-.16c0-.12-.11-.12-.32,0l-.25.15c-.21.12-.32.24-.32.36v.17S18.06,57.84,18.08,57.83Z"/><path class="cls-1" d="M13.49,69.21l-.35.2c-.06,0-.09,0-.09,0V66.5a.16.16,0,0,1,.09-.15l1-.57c.21-.12.38-.15.5-.08s.18.22.18.47v.37a1.32,1.32,0,0,1-.36.93s.44.82.44.82,0,.11-.07.16l-.34.19a.22.22,0,0,1-.1,0s0,0-.06-.05l-.41-.79-.28.16a.1.1,0,0,0,0,.08v1A.15.15,0,0,1,13.49,69.21Zm.13-1.69.4-.24a.58.58,0,0,0,.2-.17.49.49,0,0,0,.06-.25v-.37c0-.1,0-.15-.06-.18s-.11,0-.2,0l-.4.23a.1.1,0,0,0,0,.08v.82S13.59,67.53,13.62,67.52Z"/><path class="cls-1" d="M16.74,67.33l-1.34.78c-.06,0-.09,0-.09,0V65.19A.18.18,0,0,1,15.4,65l1.34-.77c.06,0,.09,0,.09,0v.32a.16.16,0,0,1-.09.15l-.86.5a.09.09,0,0,0-.05.08V66s0,0,.05,0l.71-.41c.06,0,.08,0,.08.05V66a.16.16,0,0,1-.08.15l-.71.41a.08.08,0,0,0-.05.08v.66s0,0,.05,0l.86-.5q.09,0,.09.06v.32A.16.16,0,0,1,16.74,67.33Z"/><path class="cls-1" d="M17.22,66.27v-.09a.16.16,0,0,1,.09-.15l.35-.2c.05,0,.08,0,.08,0s0,.23.06.25.12,0,.23-.07l.19-.11a.58.58,0,0,0,.23-.2.66.66,0,0,0,.06-.31v0c0-.09,0-.15-.09-.16a.45.45,0,0,0-.24,0l-.32.13a2,2,0,0,1-.31.07.23.23,0,0,1-.24-.11.78.78,0,0,1-.1-.43v-.16a1.28,1.28,0,0,1,.19-.69,1.31,1.31,0,0,1,.5-.49l.41-.24a.54.54,0,0,1,.51-.09c.12.07.18.23.18.47v.09a.16.16,0,0,1-.09.15l-.35.21s-.08,0-.08,0,0-.23-.06-.25-.12,0-.23.07l-.16.09a.52.52,0,0,0-.23.2.72.72,0,0,0-.06.33v.09c0,.15.11.17.34.06a2,2,0,0,1,.62-.2.24.24,0,0,1,.24.12.63.63,0,0,1,.1.41v.16a1.34,1.34,0,0,1-.69,1.18l-.45.26c-.21.12-.38.15-.5.08S17.22,66.52,17.22,66.27Z"/><path class="cls-1" d="M20.94,64.9l-1.34.78c-.06,0-.09,0-.09-.05V62.77a.16.16,0,0,1,.09-.15l1.34-.78c.06,0,.09,0,.09,0v.33a.15.15,0,0,1-.09.14l-.86.5a.1.1,0,0,0,0,.08v.62s0,0,0,0l.71-.41c.06,0,.08,0,.08,0v.32a.15.15,0,0,1-.08.15l-.71.41a.1.1,0,0,0,0,.08v.66s0,.05,0,0l.86-.5c.06,0,.09,0,.09.05v.33A.15.15,0,0,1,20.94,64.9Z"/><path class="cls-1" d="M21.92,64.34l-.35.2c-.06,0-.09,0-.09-.05V61.63a.16.16,0,0,1,.09-.15l1-.57c.22-.12.39-.15.51-.08s.18.22.18.47v.37a1.25,1.25,0,0,1-.37.92s.44.83.44.83,0,.12-.07.16l-.33.19a.24.24,0,0,1-.11,0s0,0-.05-.05L22.34,63l-.28.16a.1.1,0,0,0,0,.08v1A.16.16,0,0,1,21.92,64.34Zm.13-1.69.41-.24a.53.53,0,0,0,.19-.17.49.49,0,0,0,.06-.25v-.37a.22.22,0,0,0-.06-.18s-.1,0-.19.05l-.41.23a.09.09,0,0,0,0,.08v.82S22,62.66,22.05,62.65Z"/><path class="cls-1" d="M24.82,62.66l-.54.32c-.05,0-.09,0-.1,0l-.64-2.49c0-.06,0-.11.08-.16l.39-.22c.06,0,.09,0,.1,0l.43,2.1S25,59.6,25,59.6a.21.21,0,0,1,.1-.15l.39-.23c.07,0,.1,0,.08.06l-.64,3.23A.18.18,0,0,1,24.82,62.66Z"/><path class="cls-1" d="M27.33,61.22,26,62c-.06,0-.09,0-.09,0V59.08a.18.18,0,0,1,.09-.15l1.35-.78c.05,0,.08,0,.08.06v.32a.16.16,0,0,1-.08.15l-.86.5a.07.07,0,0,0,0,.08v.62s0,0,0,0l.7-.41c.06,0,.09,0,.09,0v.33a.18.18,0,0,1-.09.15l-.7.41s0,0,0,.08v.66s0,0,0,0l.86-.5c.05,0,.08,0,.08.06v.32A.16.16,0,0,1,27.33,61.22Z"/><polygon class="cls-9" points="36.56 16.08 3.71 35.05 3.71 28.74 36.56 9.77 36.56 16.08"/><polygon class="cls-10" points="36.56 31.31 3.71 50.28 3.71 46.81 36.56 27.84 36.56 31.31"/><path class="cls-11" d="M28.33,29.37a23.16,23.16,0,0,0-1.88,1.37c-.07.15-3.59,3.74-3.68,3.82s-6.19,3.69-6.19,3.69l-2.88.27-1.52,0L9.39,40.7a15.7,15.7,0,0,0-1,1.53c0,.14-.38,1.9-.38,1.9l.74.55,5.11-3,2-1L26,34.5l5.4-3.41V30.3l.18-2.53Z"/><path class="cls-12" d="M31.79,25.78c-3,1.1-4.51.93-6.1,1.64a36.32,36.32,0,0,0-5.94,3.51,52.14,52.14,0,0,0-4.5,4.88c-8.82,6.35-5.55,3.7-7.93,7a3.89,3.89,0,0,0-.68,2.36c0,.18.09.28.25.27l.72,0a1.64,1.64,0,0,0,.71-.23l.46-.27A.36.36,0,0,0,9,44.51a4.43,4.43,0,0,1,1.6-4.24,4.45,4.45,0,0,1,1.32-.86c1.82-.71,2.11,1,2,2.16,0,.17.12.23.28.13l.23-.13L22.27,37l3.44-2A.65.65,0,0,0,26,34.4a4.71,4.71,0,0,1,2.3-4.49c2.29-1.5,2.67.16,2.58,1.39,0,.27.19.35.45.18l1.18-.81a1.45,1.45,0,0,0,.61-1C33.15,25.32,32.66,25.45,31.79,25.78Z"/><path class="cls-13" d="M24.29,28.54s-.75.39-1.16.63a.05.05,0,0,0,0,0l1.12-.58-.92,7-6.69,4.06,0-4.37c-.06,0-.07,0-.07,0l0,4.41s6.79-4.09,6.79-4.09a.05.05,0,0,0,0,0l.94-7A0,0,0,0,0,24.29,28.54Z"/><path class="cls-14" d="M28.51,30a4.63,4.63,0,0,0-2.23,3.52c0,1.23,1,1.65,2.23.94a4.62,4.62,0,0,0,2.23-3.52C30.74,29.68,29.74,29.26,28.51,30Z"/><path class="cls-15" d="M28.51,30.76A3,3,0,0,0,27.06,33c0,.79.65,1.07,1.45.61A3,3,0,0,0,30,31.37C30,30.57,29.31,30.3,28.51,30.76Z"/><path class="cls-16" d="M28.51,31.25a2,2,0,0,0-1,1.5c0,.53.43.71,1,.4a2,2,0,0,0,.95-1.5C29.46,31.13,29,31,28.51,31.25Z"/><path class="cls-14" d="M11.36,39.87a4.63,4.63,0,0,0-2.23,3.52c0,1.23,1,1.65,2.23.94a4.62,4.62,0,0,0,2.23-3.52C13.59,39.58,12.59,39.16,11.36,39.87Z"/><path class="cls-15" d="M11.36,40.66a3,3,0,0,0-1.45,2.28c0,.79.65,1.07,1.45.61a3,3,0,0,0,1.45-2.28C12.81,40.47,12.16,40.19,11.36,40.66Z"/><path class="cls-16" d="M11.36,41.15a2,2,0,0,0-.95,1.5c0,.53.42.71.95.4a2,2,0,0,0,1-1.5C12.31,41,11.89,40.85,11.36,41.15Z"/><path class="cls-13" d="M22.9,33.11l-.36.21c-.13.07-.23,0-.23-.1v-.46a.49.49,0,0,1,.23-.36l.36-.21c.13-.07.23,0,.23.1v.46A.46.46,0,0,1,22.9,33.11Z"/><path class="cls-16" d="M23.19,32.58l-.94.55c-.1.06-.18,0-.18-.08a.35.35,0,0,1,.18-.28l.94-.55c.1-.06.19,0,.19.08A.38.38,0,0,1,23.19,32.58Z"/><path class="cls-14" d="M23.58,31l-7,4.31a35.11,35.11,0,0,1,3.31-4,22.94,22.94,0,0,1,4-2.54C23.85,28.91,23.68,30.4,23.58,31Z"/><path class="cls-17" d="M17,34.9a29.81,29.81,0,0,1,2.92-3.47,20.5,20.5,0,0,1,2.83-1.92c.31-.18.63-.35.94-.51,0,.38-.16,1.38-.24,1.93Z"/><path class="cls-14" d="M28.05,28a.49.49,0,0,1-.24.38l-3.36,2.07c0-.35.17-2,.18-2.06a8.72,8.72,0,0,1,1-.4,7.21,7.21,0,0,1,2.18-.37c.14,0,.23.11.23.28Z"/><path class="cls-17" d="M24.6,30.23c0-.42.11-1.31.16-1.75a7.25,7.25,0,0,1,.84-.32,7.41,7.41,0,0,1,2.15-.37.18.18,0,0,1,.16.2v.1a.22.22,0,0,1-.1.17Z"/><path class="cls-18" d="M33.06,27.16c-.1.08-.56.49-.65.47a3.87,3.87,0,0,1-.39-.88c0-.19.75-1,.85-.92A1.61,1.61,0,0,1,33.06,27.16Z"/><path class="cls-19" d="M8.73,41.7c.66-.65.69-1.34.4-1.21C8.08,41,5.92,44.42,8.73,41.7Z"/><path class="cls-1" d="M15.61,26.15V26a.08.08,0,0,1,.05-.08l.18-.11s.05,0,.05,0V26c0,.23.12.28.35.15l.34-.2a.61.61,0,0,0,.34-.56v-.13c0-.18-.15-.22-.46-.1l-.39.15a.54.54,0,0,1-.33,0c-.09,0-.13-.14-.13-.29V24.8a1,1,0,0,1,.15-.51,1.08,1.08,0,0,1,.42-.4l.43-.25a.52.52,0,0,1,.42-.09c.11,0,.16.15.16.33V24a.11.11,0,0,1-.05.09l-.18.1s-.05,0-.05,0v-.07c0-.24-.12-.29-.35-.15l-.33.19a.62.62,0,0,0-.34.57v.15c0,.14.08.18.26.13l.25-.1c.1,0,.19-.07.29-.09a.85.85,0,0,1,.25-.05.21.21,0,0,1,.19.07.38.38,0,0,1,.07.26v.17a1,1,0,0,1-.15.52,1.13,1.13,0,0,1-.42.39l-.45.26a.51.51,0,0,1-.42.09Q15.61,26.42,15.61,26.15Z"/><path class="cls-1" d="M19.12,24.7l-.83.47q-.27.16-.42.09c-.1,0-.16-.15-.16-.33V24.1a1,1,0,0,1,.16-.52,1.13,1.13,0,0,1,.42-.39l.33-.19a.48.48,0,0,1,.42-.09q.15.06.15.33v.5a.11.11,0,0,1-.05.09L18,24.46a.09.09,0,0,0,0,.06v.24c0,.22.1.27.32.15l.8-.46s.05,0,.05,0v.14S19.15,24.67,19.12,24.7ZM18,24.26l.85-.49a.06.06,0,0,0,0-.06v-.3c0-.22-.11-.27-.32-.14l-.27.15a.56.56,0,0,0-.32.52v.3S18,24.27,18,24.26Z"/><path class="cls-1" d="M20.42,23.94l-.23.14c-.18.1-.31.13-.41.08s-.15-.16-.15-.34V23a1,1,0,0,1,.15-.51,1.1,1.1,0,0,1,.41-.39l.23-.13c.2-.12.34-.13.4,0s0-.91,0-.91a.07.07,0,0,1,.05-.08l.18-.11s.05,0,.05,0v2.63a.1.1,0,0,1-.05.08l-.18.1s-.05,0-.05,0V23.5A.94.94,0,0,1,20.42,23.94Zm.42-.85v-.77c0-.11,0-.18-.1-.21a.36.36,0,0,0-.27.07l-.23.13a.59.59,0,0,0-.33.53v.81q0,.33.33.15l.23-.14a.73.73,0,0,0,.27-.25A.51.51,0,0,0,20.84,23.09Z"/><path class="cls-1" d="M22.39,22.8l-.2.12a.52.52,0,0,1-.42.09c-.1,0-.16-.15-.16-.33v-.84a1,1,0,0,1,.16-.51,1.13,1.13,0,0,1,.42-.39l.85-.49s.05,0,.05,0v1.88a.1.1,0,0,1-.05.08l-.18.1s-.05,0-.05,0v-.15A.94.94,0,0,1,22.39,22.8Zm.42-.84V20.87s0,0,0,0l-.55.32a.58.58,0,0,0-.32.52v.81c0,.23.11.28.32.15l.22-.12a.73.73,0,0,0,.27-.25A.63.63,0,0,0,22.81,22Z"/><path class="cls-1" d="M23.86,22l-.18.1s-.05,0-.05,0V20.16a.1.1,0,0,1,.05-.08l.18-.11s.05,0,.05,0v.15a.91.91,0,0,1,.41-.44l.22-.13a.5.5,0,0,1,.41-.09c.1.05.15.16.15.34v1.36a.1.1,0,0,1-.05.08l-.18.1s-.05,0-.05,0V20q0-.35-.33-.15l-.22.12a.93.93,0,0,0-.27.25.62.62,0,0,0-.09.32v1.32A.11.11,0,0,1,23.86,22Z"/><path class="cls-1" d="M8.83,28.1v.27a.25.25,0,0,1-.1.2l-2.4,2.2,2.4-.58c.07,0,.1,0,.1.07v.28a.14.14,0,0,1-.13.15L6,31.28c-.09,0-.13,0-.13-.11v-.26A.35.35,0,0,1,6,30.65L8.7,28.1C8.79,28,8.83,28,8.83,28.1Z"/><path class="cls-1" d="M31.36,15.37V15.1a.14.14,0,0,1,.13-.15l2.71-.59c.09,0,.13,0,.13.11v.26a.36.36,0,0,1-.13.26l-2.71,2.55c-.09.08-.13.08-.13,0v-.28a.22.22,0,0,1,.1-.19l2.41-2.2-2.41.58C31.39,15.47,31.36,15.44,31.36,15.37Z"/><polygon class="cls-20" points="21.84 57.86 21.84 49.84 36.61 41.31 36.52 41.16 3.66 60.12 3.75 60.28 21.66 49.94 21.66 57.96 3.66 68.36 3.75 68.51 36.61 49.54 36.52 49.39 21.84 57.86"/></g><path class="cls-3" d="M23.14,68.69a1.42,1.42,0,0,0-.72.22L17.7,71.63a2.74,2.74,0,0,0-1.33,2.13v1.52a.85.85,0,0,0,.85,1A1.53,1.53,0,0,0,18,76l4.71-2.72A2.77,2.77,0,0,0,24,71.16V69.64A.86.86,0,0,0,23.14,68.69Z"/><path class="cls-21" d="M22.31,73.08A2.74,2.74,0,0,0,23.65,71V69.43a1,1,0,0,0-.25-.69.71.71,0,0,0-.26,0,1.42,1.42,0,0,0-.72.22L17.7,71.63a2.74,2.74,0,0,0-1.33,2.13v1.52a1,1,0,0,0,.24.69.75.75,0,0,0,.26,0,1.43,1.43,0,0,0,.73-.22Z"/><path class="cls-22" d="M23.24,11.62l-6.19,3.57c-.48.28-.87.12-.87-.37a1.81,1.81,0,0,1,.87-1.37l6.19-3.57c.48-.27.87-.11.87.37A1.79,1.79,0,0,1,23.24,11.62Z"/><polygon class="cls-23" points="4.25 24.28 4.25 29.33 35.91 11.06 35.91 6 4.25 24.28"/><polygon class="cls-24" points="32.27 10.16 32.27 11.45 34.47 10.17 34.47 8.89 32.27 10.16"/><path class="cls-25" d="M31.65,10.91v.51l-.17.1V11Zm2.9-2.09v1.33l-2.79,1.61V10.43ZM34.44,9l-2.56,1.47v1.11l2.56-1.47Z"/><path class="cls-25" d="M5.77,26.19l-.21.12v-1l.21-.12Zm-.44-.47-.2.12v.72l.2-.12Zm.88-1.09L6,24.75v1.3l.21-.12ZM6.65,24l-.2.12V25.8l.2-.12Zm.45-.57-.21.12v2l.21-.12Z"/><path class="cls-26" d="M2.16,27.79l-.52.3v4.59a.49.49,0,0,1-.21.46l.52-.3a.51.51,0,0,0,.21-.46Z"/><path class="cls-27" d="M2,27.25a1.57,1.57,0,0,0-.28-.44,1.31,1.31,0,0,0-.31-.27l-.2-.11a.48.48,0,0,0-.51-.05l-.52.3a.53.53,0,0,1,.51.05l.2.12a1.08,1.08,0,0,1,.31.26,1.57,1.57,0,0,1,.28.44,1.38,1.38,0,0,1,.13.54l.52-.3A1.3,1.3,0,0,0,2,27.25Z"/><path class="cls-3" d="M.92,26.85a1.57,1.57,0,0,1,.72,1.24v4.59c0,.46-.33.64-.72.41L.72,33A1.56,1.56,0,0,1,0,31.73V27.14a.44.44,0,0,1,.72-.41Z"/><path class="cls-26" d="M2.16,37l-.52.31v4.58a.52.52,0,0,1-.21.47L2,42a.49.49,0,0,0,.21-.46Z"/><path class="cls-27" d="M2,36.43A1.39,1.39,0,0,0,1.75,36a1.31,1.31,0,0,0-.31-.27l-.2-.11a.48.48,0,0,0-.51,0l-.52.3a.48.48,0,0,1,.51.05l.2.11a1.31,1.31,0,0,1,.31.27,1.67,1.67,0,0,1,.28.43,1.38,1.38,0,0,1,.13.55L2.16,37A1.38,1.38,0,0,0,2,36.43Z"/><path class="cls-3" d="M.92,36a1.59,1.59,0,0,1,.72,1.25v4.58c0,.46-.33.65-.72.42l-.2-.12A1.57,1.57,0,0,1,0,40.92V36.33a.44.44,0,0,1,.72-.41Z"/><path class="cls-28" d="M10.74,16.66a2.26,2.26,0,0,0-1,1.77c0,.65.46.91,1,.58a2.26,2.26,0,0,0,1-1.77C11.77,16.59,11.31,16.33,10.74,16.66Z"/><path class="cls-29" d="M10.7,17.06a1.45,1.45,0,0,0-.65,1.13c0,.42.29.59.66.38a1.46,1.46,0,0,0,.65-1.14C11.36,17,11.07,16.85,10.7,17.06Z"/><path class="cls-29" d="M10.74,17.4a.78.78,0,0,0-.36.62c0,.22.16.31.36.2a.79.79,0,0,0,.35-.62C11.09,17.38,10.93,17.29,10.74,17.4Z"/><path class="cls-30" d="M10.68,17.54a.3.3,0,0,0-.13.23c0,.08.06.12.13.08a.32.32,0,0,0,.13-.23C10.81,17.53,10.75,17.5,10.68,17.54Z"/></g></g></g></g></svg>