<svg xmlns="http://www.w3.org/2000/svg" xmlns:xlink="http://www.w3.org/1999/xlink" viewBox="0 0 91.77 66.36"><defs><style>.cls-1{fill:none;}.cls-2{isolation:isolate;}.cls-10,.cls-3{fill:#9e9997;mix-blend-mode:multiply;}.cls-4{fill:#f3e9da;}.cls-5{clip-path:url(#clip-path);}.cls-6{fill:#d6d6d6;}.cls-7{fill:#ededed;}.cls-8{fill:#fefefe;}.cls-9{fill:#aac47c;}.cls-10{opacity:0.2;}.cls-11{fill:#c31c1c;}.cls-12{fill:#d12a2a;}.cls-13{fill:#edb53a;}.cls-14{fill:#ff4c3e;}.cls-15{fill:#fffef8;}</style><clipPath id="clip-path" transform="translate(3.87)"><polygon class="cls-1" points="37.68 45.69 15.06 39.08 2.01 25.61 31.68 8.48 44.51 22.09 66.89 28.86 84.1 44.78 54.47 61.88 37.68 45.69"/></clipPath></defs><g class="cls-2"><g id="Capa_2" data-name="Capa 2"><g id="_0" data-name="0"><g id="_1" data-name="1"><polygon class="cls-3" points="89.94 45.42 57.97 63.96 6.41 34.2 38.38 15.65 89.94 45.42"/><polygon class="cls-4" points="3.87 25.31 17.47 39.96 40.16 46.47 58.16 63.45 90.08 45.02 72.08 28.04 49.39 21.53 35.8 6.88 3.87 25.31"/><g class="cls-5"><polygon class="cls-6" points="73.34 26.58 37.4 47.33 55.83 66.36 91.77 45.61 73.34 26.58"/><polygon class="cls-7" points="52.15 42.39 51.02 41.22 54.69 39.09 55.82 40.27 52.15 42.39"/><polygon class="cls-4" points="47.23 47.29 44.83 44.78 49.31 42.2 51.71 44.71 47.23 47.29"/><polygon class="cls-4" points="53.46 46.55 48.93 49.16 50.11 50.39 53.2 48.61 58.82 54.48 60.26 53.65 53.46 46.55"/><polygon class="cls-4" points="66.75 39.64 63.84 36.61 65.45 35.68 68.36 38.71 66.75 39.64"/><polygon class="cls-4" points="66.82 44.25 65.31 42.66 69.7 40.13 71.21 41.71 66.82 44.25"/><polygon class="cls-7" points="71.44 44.86 69.93 43.28 71.71 42.25 73.22 43.84 71.44 44.86"/><polygon class="cls-7" points="69.97 52.6 65.45 47.91 67.23 46.88 71.75 51.57 69.97 52.6"/><polygon class="cls-4" points="60.77 37.9 59.25 36.31 63.64 33.78 65.16 35.36 60.77 37.9"/><polygon class="cls-4" points="68.7 36.32 65.42 32.89 67.24 31.84 70.52 35.26 68.7 36.32"/><polygon class="cls-4" points="72.53 40.4 69.25 36.97 71.08 35.92 74.35 39.35 72.53 40.4"/><polygon class="cls-4" points="76.45 44.43 73.17 41 74.99 39.95 78.27 43.38 76.45 44.43"/><polygon class="cls-4" points="80.39 48.46 77.11 45.03 78.93 43.98 82.21 47.4 80.39 48.46"/><polygon class="cls-4" points="57.6 39.73 56.09 38.14 58.6 36.69 60.12 38.27 57.6 39.73"/><polygon class="cls-4" points="63.67 46.09 62.16 44.51 64.68 43.06 66.19 44.64 63.67 46.09"/><path class="cls-8" d="M78.23,51.91l.46-.26L60.57,32.94l7.64-4.41-.32-.33L32,49l.31.33,6.87-4,3.83,4-6.87,4,.33.34,6.86-4L57.24,64l.46-.27-14-14.36,6-3.48,14,14.36.46-.26-14-14.36,1.6-.93,5-.14L69.07,57.2l.46-.27L57.32,44.4l8.7-5ZM43.41,49.06l-3.82-4,6-3.48,3.83,4Zm8.24-4.76-1.75,1-3.83-4L51,38.49l5.43,5.68ZM57,44.06l-5.58-5.83,8.7-5L65.69,39Z" transform="translate(3.87)"/><polygon class="cls-6" points="48.88 22.12 35.94 7.95 0 28.7 12.93 42.87 48.88 22.12"/><polygon class="cls-4" points="35.06 28.93 33.59 27.32 37.98 24.78 39.45 26.39 35.06 28.93"/><polygon class="cls-4" points="26.3 33.98 24.84 32.37 29.22 29.84 30.69 31.45 26.3 33.98"/><polygon class="cls-9" points="24.27 32.32 20.6 28.3 25.66 25.39 29.32 29.4 24.27 32.32"/><polygon class="cls-4" points="31.89 30.75 30.43 29.14 32.94 27.69 34.41 29.3 31.89 30.75"/><polygon class="cls-4" points="29.49 22.82 28.02 21.21 32.41 18.68 33.88 20.29 29.49 22.82"/><polygon class="cls-4" points="20.76 27.86 19.29 26.25 23.68 23.72 25.15 25.33 20.76 27.86"/><polygon class="cls-4" points="18.08 24.92 16.61 23.31 21 20.78 22.46 22.38 18.08 24.92"/><polygon class="cls-4" points="26.32 24.65 24.86 23.04 27.37 21.59 28.84 23.2 26.32 24.65"/><polygon class="cls-4" points="35.88 25.18 32.73 21.72 34.34 20.79 37.5 24.25 35.88 25.18"/><polygon class="cls-4" points="19.95 37.65 18.48 36.04 23.61 33.08 25.08 34.69 19.95 37.65"/><polygon class="cls-4" points="14.38 31.55 12.91 29.94 18.05 26.97 19.51 28.58 14.38 31.55"/><polygon class="cls-4" points="21.52 33.48 18.36 30.02 19.97 29.09 23.13 32.55 21.52 33.48"/><polygon class="cls-7" points="18.08 35.46 14.92 32 16.53 31.07 19.69 34.53 18.08 35.46"/><polygon class="cls-4" points="11.73 28.65 10.27 27.04 15.4 24.07 16.87 25.68 11.73 28.65"/><polygon class="cls-7" points="13.3 24.47 10.14 21.01 11.76 20.08 14.91 23.54 13.3 24.47"/><polygon class="cls-4" points="9.86 26.46 6.7 23 8.32 22.07 11.47 25.53 9.86 26.46"/><polygon class="cls-7" points="29.95 28.61 26.8 25.14 28.41 24.21 31.57 27.68 29.95 28.61"/><polygon class="cls-4" points="44.14 23.72 42.67 22.11 45.72 20.38 47.19 21.99 44.14 23.72"/><polygon class="cls-4" points="40.97 25.55 39.5 23.94 42.02 22.48 43.49 24.09 40.97 25.55"/><polygon class="cls-4" points="38.57 17.61 37.1 16.01 40.05 14.3 41.52 15.91 38.57 17.61"/><polygon class="cls-4" points="35.4 19.44 33.93 17.84 36.45 16.38 37.92 17.99 35.4 19.44"/><polygon class="cls-4" points="36.08 14.69 34.62 13.08 37.56 11.37 39.03 12.98 36.08 14.69"/><polygon class="cls-7" points="32.92 16.51 31.45 14.9 33.97 13.45 35.44 15.06 32.92 16.51"/><polygon class="cls-4" points="43.62 20.77 40.47 17.31 42.08 16.38 45.23 19.84 43.62 20.77"/><polygon class="cls-4" points="39.03 23.4 35.87 19.94 37.49 19.01 40.64 22.47 39.03 23.4"/><polygon class="cls-4" points="26.78 19.85 25.31 18.24 29.7 15.71 31.16 17.31 26.78 19.85"/><polygon class="cls-7" points="23.61 21.68 22.14 20.07 24.66 18.61 26.13 20.22 23.61 21.68"/><polygon class="cls-4" points="27.6 16.11 24.44 12.64 26.05 11.71 29.21 15.17 27.6 16.11"/><polygon class="cls-4" points="21.67 19.53 18.51 16.07 20.13 15.14 23.28 18.6 21.67 19.53"/><path class="cls-8" d="M9.06,42.87,45,22.12l-.31-.34-7.63,4.41-7.91-8.67,7.64-4.4-.32-.35-7.64,4.41-4.39-4.82-.46.26,4.4,4.82-8.7,5-4.4-4.82-.46.26,4.4,4.82-4.89,2.82L9.94,20.73,9.48,21l4.4,4.81-6,3.48-4.4-4.81L3,24.74l4.4,4.82-6.86,4,.31.35,6.87-4,7.9,8.66-6.86,4ZM28.69,17.79l7.91,8.66-8.7,5L20,22.81Zm-9.16,5.29,7.91,8.66-4.88,2.82L14.65,25.9ZM8.16,29.64l6-3.48,7.91,8.67-6,3.48Z" transform="translate(3.87)"/><polygon class="cls-8" points="26.7 26.35 26.58 26.22 21.39 29.22 21.51 29.35 26.7 26.35"/><polygon class="cls-8" points="28.71 28.59 28.59 28.46 23.41 31.46 23.52 31.59 28.71 28.59"/><path class="cls-8" d="M18.4,28.8l-.14.1V29L24,29a.62.62,0,0,1,.11-.17Z" transform="translate(3.87)"/><polygon class="cls-6" points="55.28 18.51 19.33 39.26 41.65 45.6 77.6 24.84 55.28 18.51"/><polygon class="cls-4" points="62.36 29.44 56.23 27.69 57.85 26.76 63.98 28.51 62.36 29.44"/><polygon class="cls-4" points="45.69 27.09 42.84 26.27 47.23 23.74 50.08 24.55 45.69 27.09"/><polygon class="cls-4" points="63.08 32.04 60.23 31.22 64.62 28.69 67.47 29.5 63.08 32.04"/><polygon class="cls-4" points="42.52 28.91 39.67 28.1 42.19 26.65 45.04 27.46 42.52 28.91"/><polygon class="cls-4" points="55.36 27.45 49.23 25.7 50.84 24.77 56.97 26.52 55.36 27.45"/><polygon class="cls-4" points="48.89 40.46 46.04 39.65 50.43 37.12 53.28 37.93 48.89 40.46"/><polygon class="cls-4" points="31.07 35.39 28.22 34.58 32.61 32.05 35.46 32.86 31.07 35.39"/><polygon class="cls-4" points="24.42 39.15 21.57 38.34 25.96 35.8 28.8 36.62 24.42 39.15"/><polygon class="cls-4" points="38.62 35.15 34.56 33.99 36.17 33.06 40.23 34.21 38.62 35.15"/><polygon class="cls-4" points="31.96 38.9 27.9 37.75 29.51 36.82 33.57 37.97 31.96 38.9"/><polygon class="cls-4" points="36.9 40.27 32.84 39.12 34.45 38.19 38.51 39.34 36.9 40.27"/><polygon class="cls-4" points="41.93 41.7 37.87 40.55 39.48 39.62 43.54 40.77 41.93 41.7"/><path class="cls-9" d="M49.05,32.45c0,.11-.22.3-.52.53.14-.8-.66-1.58-2.31-2a12.31,12.31,0,0,0-4.11-.35l-7.83-2.19-5,2.91,7.83,2.31A3.55,3.55,0,0,0,39.26,35a12.9,12.9,0,0,0,5.51.19,4.64,4.64,0,0,1-1,.33l7.56,2.25,5.19-3Z" transform="translate(3.87)"/><polygon class="cls-4" points="48.19 37.87 44.13 36.72 45.74 35.78 49.8 36.94 48.19 37.87"/><polygon class="cls-4" points="57 32.53 52.95 31.38 54.56 30.45 58.62 31.6 57 32.53"/><polygon class="cls-4" points="42.64 36.88 38.58 35.73 40.19 34.8 44.25 35.95 42.64 36.88"/><polygon class="cls-8" points="26.2 35.3 48.52 41.63 48.98 41.37 26.66 35.03 26.2 35.3"/><path class="cls-8" d="M49.05,32.71l7.42,2.09.46-.26-8-2.27a3.7,3.7,0,0,0-2.39-1.51,13.37,13.37,0,0,0-4.34-.4L34.61,28.2l-.46.27,7,2a9.6,9.6,0,0,0-3.46,1c-1,.56-1.36,1.22-1.21,1.84l-7.2-2.05-.46.26,7.86,2.24A4.14,4.14,0,0,0,39,35.12a12.76,12.76,0,0,0,3.92.42s8.24,2.35,8.24,2.35l.46-.27L44,35.47a10.18,10.18,0,0,0,3.85-1.09C48.69,33.87,49.09,33.28,49.05,32.71Zm-1.86,1.5a11.59,11.59,0,0,1-7.77.65c-2.45-.7-3-2.13-1.12-3.19A11.63,11.63,0,0,1,46.06,31C48.51,31.72,49,33.15,47.19,34.21Z" transform="translate(3.87)"/><polygon class="cls-8" points="47.64 22.92 47.18 23.18 69.5 29.52 69.96 29.25 47.64 22.92"/></g><polygon class="cls-10" points="49.39 21.53 17.47 39.96 40.16 46.47 72.08 28.04 49.39 21.53"/><g class="cls-2"><path class="cls-11" d="M34.57,24.53c-3.12-3.38-2-11.21,2.51-17.3l-1.53-.89C31,12.43,29.91,20.25,33,23.64l8,8.71,1.54.89Z" transform="translate(3.87)"/><path class="cls-12" d="M42.5,2.26A7.89,7.89,0,0,1,48.25,1c4.34,1,5.29,7.49,2.29,14.26L42.59,33.24l-8-8.71c-3.12-3.38-2-11.21,2.51-17.3A18.72,18.72,0,0,1,42.5,2.26Z" transform="translate(3.87)"/></g><path class="cls-13" d="M42.7,4.79c4.07-2.35,7.37-.47,7.39,4.21a16.18,16.18,0,0,1-7.34,12.72c-4.07,2.35-7.38.46-7.39-4.22A16.15,16.15,0,0,1,42.7,4.79Z" transform="translate(3.87)"/><path class="cls-14" d="M46.71.15A7.89,7.89,0,0,0,41,1.37a18.69,18.69,0,0,0-5.41,5A22.78,22.78,0,0,0,32.46,12l1.53.88a22.72,22.72,0,0,1,3.09-5.65,18.72,18.72,0,0,1,5.42-5A7.89,7.89,0,0,1,48.25,1a4.67,4.67,0,0,1,1.24.5L48,.64A4.93,4.93,0,0,0,46.71.15Z" transform="translate(3.87)"/><path class="cls-15" d="M38.93,15.24a2.28,2.28,0,0,0-1,1.79c0,.66.47.93,1,.6a2.31,2.31,0,0,0,1-1.8C40,15.17,39.51,14.91,38.93,15.24Zm0,2.14c-.46.27-.83.05-.83-.47a1.82,1.82,0,0,1,.82-1.42c.46-.27.83-.05.83.47A1.8,1.8,0,0,1,38.94,17.38Z" transform="translate(3.87)"/><path class="cls-15" d="M48.24,8.36c-1.55.53-2.34.36-3.17.71a10.16,10.16,0,0,0-1.18.6,10,10,0,0,0-1.31.89,26.58,26.58,0,0,0-2.32,2.7c-4.57,3.39-2.18,1.56-3.41,3.39A2.42,2.42,0,0,0,36.49,18c0,.1,0,.17.13.17H37a.71.71,0,0,0,.37-.11L37.6,18a.18.18,0,0,0,.1-.19,2.69,2.69,0,0,1,.82-2.45A2.26,2.26,0,0,1,39,15l.24-.11c.95-.35,1.1.7,1,1.37,0,.1.06.14.14.09l.12-.07c1.39-.81,1.42-.85,2.81-1.66l1.78-1.05a.34.34,0,0,0,.17-.3,2.71,2.71,0,0,1,1.18-2.57.6.6,0,0,1,.15-.09c1-.61,1.23.33,1.19,1,0,.15.09.21.23.13l.62-.43a.79.79,0,0,0,.31-.59C48.94,8.15,48.69,8.21,48.24,8.36ZM43.75,12l-.56.32s-.06,0-.06,0a.15.15,0,0,1,.06-.11l.56-.32s.06,0,.06,0A.15.15,0,0,1,43.75,12ZM44,11.1,40.94,13a18,18,0,0,1,1.72-2.22,4.52,4.52,0,0,1,1-.75l.48-.25C44.12,9.87,44,10.75,44,11.1Zm2.19-1.36-1.74,1.08c0-.2.08-1.16.09-1.22a4.07,4.07,0,0,1,.52-.18,3,3,0,0,1,1.13-.13c.08,0,.12.08.12.18v.06A.27.27,0,0,1,46.18,9.74Z" transform="translate(3.87)"/><path class="cls-15" d="M46.54,10.85a2.26,2.26,0,0,0-1,1.79c0,.66.47.93,1,.6a2.33,2.33,0,0,0,1-1.8C47.58,10.78,47.12,10.52,46.54,10.85Zm0,2.14c-.46.26-.83,0-.83-.47a1.86,1.86,0,0,1,.82-1.43c.46-.26.83-.05.83.47A1.82,1.82,0,0,1,46.55,13Z" transform="translate(3.87)"/></g></g></g></g></svg>