<svg xmlns="http://www.w3.org/2000/svg" viewBox="0 0 58.3 60"><defs><style>.cls-1{isolation:isolate;}.cls-2{fill:#b4ebfa;}.cls-3{fill:#009632;}.cls-4{fill:#aadc78;}.cls-5{fill:#b4e682;}.cls-6{fill:#ffd200;}.cls-7{fill:#ffc800;}.cls-8{fill:#ffdc00;}.cls-9{fill:#ffe600;}.cls-10,.cls-11,.cls-15{fill:#fff;}.cls-10{opacity:0.25;mix-blend-mode:screen;}.cls-11{opacity:0.3;}.cls-12{fill:#007896;}.cls-13{fill:#008caa;}.cls-14{fill:#dc3200;}</style></defs><g class="cls-1"><g id="Capa_2" data-name="Capa 2"><g id="Layer_1" data-name="Layer 1"><path class="cls-2" d="M56.48,58.28A1.72,1.72,0,0,1,54.76,60H3.54a1.72,1.72,0,0,1-1.72-1.72V9H56.48Z"/><rect class="cls-3" x="23.8" width="10.7" height="18.91"/><path class="cls-4" d="M33.92,15.74V3.17A3.24,3.24,0,0,1,31.33.57H27a3.24,3.24,0,0,1-2.6,2.6V15.74a3.24,3.24,0,0,1,2.6,2.6h4.36A3.24,3.24,0,0,1,33.92,15.74Z"/><path class="cls-5" d="M24.37,9.47v6.27a3.24,3.24,0,0,1,2.6,2.6h4.36a3.24,3.24,0,0,1,2.59-2.6V9.47Z"/><path class="cls-3" d="M29.15,13.61c-1.71,0-3.1-1.86-3.1-4.16s1.39-4.15,3.1-4.15,3.1,1.86,3.1,4.15S30.86,13.61,29.15,13.61Z"/><path class="cls-3" d="M29.15,4.28A.87.87,0,1,1,30,3.41.87.87,0,0,1,29.15,4.28Z"/><path class="cls-3" d="M29.15,16.37A.87.87,0,1,1,30,15.5.87.87,0,0,1,29.15,16.37Z"/><path class="cls-5" d="M26.42,9.13H27a4.28,4.28,0,0,1,.12-.79,4.23,4.23,0,0,1,.15-.49h1V9a.37.37,0,0,0-.23.06c-.05,0-.07.13-.07.26a.45.45,0,0,0,.05.24.19.19,0,0,0,.16.08.14.14,0,0,0,.12-.06.82.82,0,0,0,.13-.24c.1-.26.19-.48.28-.67a1.86,1.86,0,0,1,.29-.48,1,1,0,0,1,.37-.28,1.55,1.55,0,0,1,1,0,1.07,1.07,0,0,1,.37.22A1.37,1.37,0,0,1,31,8.5a2.49,2.49,0,0,1,.13.63h.59V9.8h-.58a2.55,2.55,0,0,1-.05.43,2.84,2.84,0,0,1-.08.34,1.84,1.84,0,0,1-.09.28.69.69,0,0,1-.1.21h-.92V10a.22.22,0,0,0,.2-.08.34.34,0,0,0,.06-.2.49.49,0,0,0-.05-.25A.16.16,0,0,0,30,9.38a.13.13,0,0,0-.13.08,1,1,0,0,0-.09.24c-.07.2-.14.39-.21.56a1.8,1.8,0,0,1-.27.47,1.18,1.18,0,0,1-.38.32,1.33,1.33,0,0,1-.56.11,1.2,1.2,0,0,1-.92-.34,1.64,1.64,0,0,1-.39-1h-.62Z"/><path class="cls-6" d="M52.9,43.45a5.05,5.05,0,1,1-2.11-6.82A5,5,0,0,1,52.9,43.45Z"/><path class="cls-7" d="M52.44,43.2a4.52,4.52,0,1,1-1.9-6.11A4.53,4.53,0,0,1,52.44,43.2Z"/><path class="cls-8" d="M52.9,43.45a5,5,0,0,0-2.11-6.82l-4.71,8.93A5,5,0,0,0,52.9,43.45Z"/><path class="cls-6" d="M52.44,43.2a4.53,4.53,0,0,0-1.9-6.11l-4.21,8A4.53,4.53,0,0,0,52.44,43.2Z"/><path class="cls-9" d="M46.62,43.67,47,43a4.91,4.91,0,0,1-.79-.58q-.27-.26-.45-.45l.59-1.11,1.23.65a.49.49,0,0,0-.07.29.48.48,0,0,0,.24.23.55.55,0,0,0,.29.08.21.21,0,0,0,.17-.13.2.2,0,0,0,0-.17,1.13,1.13,0,0,0-.19-.27q-.33-.37-.57-.69a3.08,3.08,0,0,1-.35-.58A1.42,1.42,0,0,1,47,39.7a1.65,1.65,0,0,1,.2-.62,1.77,1.77,0,0,1,.34-.46,1.29,1.29,0,0,1,.45-.27,1.41,1.41,0,0,1,.59,0,2.66,2.66,0,0,1,.76.21l.33-.65.74.39-.34.63a3.35,3.35,0,0,1,.44.3c.12.09.23.19.33.28l.25.26a1,1,0,0,1,.17.23l-.52,1-1.18-.62a.27.27,0,0,0,0-.27.46.46,0,0,0-.19-.17.71.71,0,0,0-.29-.09.19.19,0,0,0-.17.12.19.19,0,0,0,0,.19,1.9,1.9,0,0,0,.21.23c.18.19.35.37.5.55a2.6,2.6,0,0,1,.35.56,1.53,1.53,0,0,1,.12.6,1.4,1.4,0,0,1-.19.67,1.48,1.48,0,0,1-.9.8,2,2,0,0,1-1.33-.15l-.35.67Z"/><rect class="cls-3" x="5.71" y="43.09" width="19.99" height="11.31" transform="translate(-21.04 13.07) rotate(-27.99)"/><path class="cls-4" d="M19.2,41.17,7.46,47.41a3.42,3.42,0,0,1-1.13,3.71l2.16,4.07a3.4,3.4,0,0,1,3.71,1.14l11.74-6.25a3.41,3.41,0,0,1,1.14-3.7L22.91,42.3A3.42,3.42,0,0,1,19.2,41.17Z"/><path class="cls-5" d="M18.08,53.2l5.86-3.12a3.41,3.41,0,0,1,1.14-3.7L22.91,42.3a3.42,3.42,0,0,1-3.71-1.13l-5.86,3.11Z"/><path class="cls-3" d="M19.58,46.69c.85,1.6-.2,3.82-2.34,5s-4.56.77-5.41-.83.19-3.82,2.33-5S18.73,45.09,19.58,46.69Z"/><path class="cls-3" d="M10.87,51.31a.92.92,0,1,1-1.24-.38A.91.91,0,0,1,10.87,51.31Z"/><path class="cls-3" d="M22.15,45.32a.92.92,0,1,1-1.24-.38A.91.91,0,0,1,22.15,45.32Z"/><path class="cls-5" d="M16.75,51.46l-.31-.58a4.61,4.61,0,0,1-.78.29l-.54.1-.51-1,1.06-.57a.27.27,0,0,0,.45.13.5.5,0,0,0,.2-.17.19.19,0,0,0,0-.18c0-.05-.06-.07-.12-.09h-.28l-.76.08a2.16,2.16,0,0,1-.59,0,1.17,1.17,0,0,1-.45-.21,1.47,1.47,0,0,1-.35-.44,1.8,1.8,0,0,1-.16-.46,1.18,1.18,0,0,1,0-.46,1.24,1.24,0,0,1,.25-.44A2.66,2.66,0,0,1,14.4,47l-.3-.55.63-.34.29.55a4.21,4.21,0,0,1,.43-.17l.35-.1.31-.05h.25l.46.86-1,.54a.26.26,0,0,0-.18-.15.37.37,0,0,0-.22,0,.6.6,0,0,0-.2.16.19.19,0,0,0,0,.18.16.16,0,0,0,.14.08l.27,0,.63-.09a2.15,2.15,0,0,1,.57,0,1.24,1.24,0,0,1,.49.2,1.31,1.31,0,0,1,.38.47,1.29,1.29,0,0,1,.14,1,1.74,1.74,0,0,1-.76.86l.31.59Z"/><path class="cls-6" d="M30.13,51.74a5.05,5.05,0,1,1-5.05-5.05A5.06,5.06,0,0,1,30.13,51.74Z"/><path class="cls-7" d="M29.6,51.74a4.53,4.53,0,1,1-4.52-4.52A4.52,4.52,0,0,1,29.6,51.74Z"/><path class="cls-8" d="M30.13,51.74a5,5,0,0,0-5.05-5.05V56.8A5.06,5.06,0,0,0,30.13,51.74Z"/><path class="cls-6" d="M29.6,51.74a4.52,4.52,0,0,0-4.52-4.52v9.05A4.52,4.52,0,0,0,29.6,51.74Z"/><path class="cls-9" d="M24.67,54.86v-.75a6.23,6.23,0,0,1-1-.14c-.24-.07-.45-.13-.61-.19V52.52h1.4a.48.48,0,0,0,.07.29.42.42,0,0,0,.32.09.47.47,0,0,0,.3-.07.2.2,0,0,0,.08-.19.18.18,0,0,0-.07-.15,1,1,0,0,0-.29-.16L24.09,52a2.41,2.41,0,0,1-.58-.36,1.28,1.28,0,0,1-.35-.46,1.56,1.56,0,0,1-.11-.64,2,2,0,0,1,.08-.56,1.18,1.18,0,0,1,.28-.45,1.39,1.39,0,0,1,.5-.32,2.86,2.86,0,0,1,.76-.17v-.72h.83V49a3.71,3.71,0,0,1,.53.06,3.52,3.52,0,0,1,.41.1,2.42,2.42,0,0,1,.35.11,1.62,1.62,0,0,1,.26.12v1.14H25.72c0-.13,0-.21-.1-.25a.39.39,0,0,0-.25-.07.78.78,0,0,0-.3,0,.21.21,0,0,0-.09.19.19.19,0,0,0,.1.16l.29.11.7.25a2.24,2.24,0,0,1,.57.33,1.29,1.29,0,0,1,.39.48,1.52,1.52,0,0,1,.14.68,1.49,1.49,0,0,1-.42,1.13,2,2,0,0,1-1.25.48v.76Z"/><path class="cls-6" d="M13.55,34.68a5.05,5.05,0,1,1-6.87-2A5.06,5.06,0,0,1,13.55,34.68Z"/><path class="cls-7" d="M13.1,34.94a4.53,4.53,0,1,1-6.16-1.75A4.53,4.53,0,0,1,13.1,34.94Z"/><path class="cls-8" d="M13.55,34.68a5.05,5.05,0,0,0-6.87-2l4.92,8.83A5.06,5.06,0,0,0,13.55,34.68Z"/><path class="cls-6" d="M13.1,34.94a4.54,4.54,0,0,0-6.16-1.75l4.41,7.9A4.53,4.53,0,0,0,13.1,34.94Z"/><path class="cls-9" d="M10.31,40.07l-.37-.67a5,5,0,0,1-.91.35l-.62.13L7.8,38.79,9,38.11a.47.47,0,0,0,.21.21c.07,0,.18,0,.32-.08a.47.47,0,0,0,.23-.2.23.23,0,0,0,0-.21.22.22,0,0,0-.14-.1,1.28,1.28,0,0,0-.33,0c-.33,0-.62.09-.88.11a2.47,2.47,0,0,1-.68,0,1.34,1.34,0,0,1-.53-.23,1.75,1.75,0,0,1-.41-.5,2,2,0,0,1-.2-.54,1.35,1.35,0,0,1,0-.53,1.51,1.51,0,0,1,.29-.52A3.06,3.06,0,0,1,7.47,35l-.35-.63.72-.41.35.63a3.62,3.62,0,0,1,.49-.2,2.41,2.41,0,0,1,.41-.13l.36-.07a1.48,1.48,0,0,1,.29,0l.55,1-1.16.65a.28.28,0,0,0-.21-.17.57.57,0,0,0-.25.06.74.74,0,0,0-.24.2.23.23,0,0,0,0,.21.19.19,0,0,0,.17.09l.31,0A6.45,6.45,0,0,1,9.65,36a2.43,2.43,0,0,1,.66,0,1.49,1.49,0,0,1,.57.23,1.63,1.63,0,0,1,.46.53A1.53,1.53,0,0,1,11.52,38a2,2,0,0,1-.86,1l.37.67Z"/><rect class="cls-3" x="37.56" y="39.61" width="11.31" height="19.99" transform="matrix(0.38, -0.92, 0.92, 0.38, -19.17, 70.51)"/><path class="cls-4" d="M35.14,51.72l12.28,5.1A3.4,3.4,0,0,1,51,55.33l1.77-4.26a3.41,3.41,0,0,1-1.48-3.58L39,42.39a3.41,3.41,0,0,1-3.59,1.48l-1.77,4.27A3.41,3.41,0,0,1,35.14,51.72Z"/><path class="cls-5" d="M45.13,44.94,39,42.39a3.41,3.41,0,0,1-3.59,1.48l-1.77,4.27a3.41,3.41,0,0,1,1.49,3.58l6.13,2.54Z"/><path class="cls-3" d="M39.16,47.92c.69-1.67,3.07-2.28,5.31-1.35s3.49,3,2.8,4.72S44.19,53.56,42,52.64,38.46,49.59,39.16,47.92Z"/><path class="cls-3" d="M48.26,51.7a.93.93,0,0,1,1.2-.5.92.92,0,0,1-.7,1.7A.92.92,0,0,1,48.26,51.7Z"/><path class="cls-3" d="M36.46,46.8A.92.92,0,1,1,37,48,.93.93,0,0,1,36.46,46.8Z"/><path class="cls-5" d="M44.64,47.07l-.25.6a4.24,4.24,0,0,1,.72.43c.17.13.31.25.42.35l-.41,1L44,49a.38.38,0,0,0,0-.25c0-.07-.09-.12-.22-.18a.44.44,0,0,0-.26,0,.17.17,0,0,0-.13.12.14.14,0,0,0,0,.14.72.72,0,0,0,.18.23,6.86,6.86,0,0,1,.54.54,2.28,2.28,0,0,1,.35.47,1.41,1.41,0,0,1,.12.48,1.39,1.39,0,0,1-.12.54,1.41,1.41,0,0,1-.26.43.93.93,0,0,1-.36.26,1.33,1.33,0,0,1-.51.09,2.2,2.2,0,0,1-.66-.12l-.24.58L41.82,52l.23-.57-.39-.22c-.11-.07-.21-.15-.3-.22l-.24-.2a1.37,1.37,0,0,1-.17-.19l.37-.9,1.06.44a.23.23,0,0,0,0,.23.39.39,0,0,0,.17.14.6.6,0,0,0,.26,0,.16.16,0,0,0,.14-.11.15.15,0,0,0,0-.16,2,2,0,0,0-.2-.19l-.46-.43a1.83,1.83,0,0,1-.35-.45,1.16,1.16,0,0,1-.15-.51,1.2,1.2,0,0,1,.11-.59,1.28,1.28,0,0,1,.71-.76,1.75,1.75,0,0,1,1.15,0l.25-.61Z"/><path class="cls-10" d="M56.48,9V56.57A3.44,3.44,0,0,1,53.05,60H3.53a1.72,1.72,0,0,1-1.71-1.71V9Z"/><polygon class="cls-11" points="23.98 8.99 1.82 31.15 1.82 22.94 15.78 8.99 23.98 8.99"/><polygon class="cls-11" points="56.48 40.56 56.48 48.76 45.24 60 37.04 60 56.48 40.56"/><rect class="cls-12" y="8.99" width="58.3" height="5.97"/><rect class="cls-13" x="29.15" y="8.99" width="29.15" height="5.97"/><rect class="cls-14" x="12.49" y="22.23" width="33.18" height="10.72" rx="0.86"/><path class="cls-15" d="M17.54,24h1.79c1.13,0,1.69.62,1.69,1.78v3.64c0,1.15-.56,1.78-1.69,1.78H17.54Zm1.13,1v5.14h.64c.36,0,.58-.18.58-.7V25.7c0-.52-.22-.7-.58-.7Z"/><path class="cls-15" d="M21.65,25.7a1.6,1.6,0,0,1,1.71-1.82,1.6,1.6,0,0,1,1.72,1.82v3.74a1.6,1.6,0,0,1-1.72,1.81,1.59,1.59,0,0,1-1.71-1.81Zm1.13,3.81c0,.52.22.71.58.71S24,30,24,29.51V25.62c0-.51-.22-.71-.59-.71s-.58.2-.58.71Z"/><path class="cls-15" d="M26.82,26v5.22h-1V24h1.42l1.17,4.31V24h1v7.2H28.23Z"/><path class="cls-15" d="M33.87,31.17H32.73l-.2-1.31H31.14L31,31.17h-1L31.06,24h1.66Zm-2.58-2.28h1.09l-.55-3.65Z"/><path class="cls-15" d="M33.67,24h3.5v1H36v6.17H34.86V25H33.67Z"/><path class="cls-15" d="M38.8,27h1.55v1H38.8v2.11h2v1H37.66V24h3.09v1h-2Z"/></g></g></g></svg>